<svg xmlns="http://www.w3.org/2000/svg" xmlns:xlink="http://www.w3.org/1999/xlink" width="286" zoomAndPan="magnify" viewBox="0 0 214.5 141.749996" height="189" preserveAspectRatio="xMidYMid meet" version="1.0"><defs><g/></defs><rect width="214.5" height="141.749996" fill="#EAECF2"/><g fill="#10182D" fill-opacity="1"><g transform="translate(102.543098, 98.22782)"><g><path d="M 14.578125 -6.796875 L 14.578125 -7.125 L 14.421875 -7.125 L 14.578125 -7.296875 L 14.578125 -8.03125 L 13.671875 -7.125 L 12.78125 -10 L 12.375 -10.078125 L 13.265625 -7.125 L 12.203125 -5.40625 L 14.328125 -5 L 14.328125 -4.921875 L 14.421875 -4.921875 L 14.5 -5 L 14.5 -4.828125 L 16.875 -4.421875 L 15.640625 -2.625 L 15.96875 -2.046875 L 17.609375 -4.421875 L 18.515625 -2.453125 L 17.78125 -0.328125 L 17.359375 0 L 7.046875 0 L 5.40625 -0.65625 L 4.828125 -2.21875 L 4.828125 -3.1875 L 4.671875 -5.234375 L 4.09375 -7.046875 L 4.09375 -11.796875 L 4.34375 -11.953125 L 5.078125 -14.65625 L 5.078125 -17.609375 L 4.34375 -18.265625 L 4.34375 -23.015625 L 5.40625 -24.65625 L 6.21875 -22.109375 L 6.640625 -21.453125 L 8.1875 -21.453125 L 8.59375 -22.109375 L 6.21875 -22.109375 L 8.03125 -24.25 L 7.453125 -24.328125 L 6.546875 -23.265625 L 6.21875 -24.484375 L 5.40625 -24.65625 L 5.8125 -25.5625 L 5.734375 -25.796875 L 5.984375 -25.796875 L 6.71875 -27.28125 L 6.546875 -27.609375 L 5.328125 -25.140625 L 4.265625 -23.5 L 4.265625 -26.703125 L 4.421875 -26.78125 L 4.421875 -29.328125 L 4.34375 -29.484375 L 4.34375 -29.8125 L 4.265625 -29.984375 L 4.34375 -29.984375 L 4.34375 -32.6875 L 7.53125 -31.78125 L 7.859375 -32.921875 L 5.40625 -33.65625 L 5.890625 -34.8125 L 5.5625 -37.34375 L 4.75 -37.515625 L 4.75 -43.90625 L 6.546875 -43.8125 L 7.9375 -41.765625 L 8.4375 -43.078125 L 8.03125 -43.734375 L 8.4375 -43.90625 L 8.515625 -43.90625 L 8.84375 -43.984375 L 9.015625 -44.46875 L 7.125 -43.8125 L 5.328125 -43.90625 L 5.328125 -53 L 5.078125 -52.828125 L 5.40625 -55.125 L 6.46875 -53.890625 L 7.125 -54.140625 L 5.65625 -55.78125 L 7.53125 -57.328125 L 7.375 -56.84375 L 8.265625 -56.84375 L 8.109375 -57.09375 L 9.171875 -57.09375 L 9.25 -57.328125 L 9.421875 -57.09375 L 9.671875 -57.09375 L 10.734375 -56.84375 L 11.46875 -58.15625 L 9.90625 -58.484375 L 20.96875 -58.484375 L 21.546875 -57.5 L 19.578125 -57.5 L 20.234375 -55.046875 L 18.59375 -55.375 L 18.921875 -54.625 L 20.0625 -54.390625 L 19.25 -52.5 L 19 -53.15625 L 15.96875 -53.328125 L 15.890625 -49.96875 L 16.796875 -49.96875 L 16.875 -52.5 L 17.28125 -51.4375 L 18.921875 -51.359375 L 19.578125 -52.5 L 19.40625 -52.75 L 20.234375 -54.625 L 20.796875 -54.796875 L 20.390625 -56.265625 L 22.359375 -56.265625 L 21.875 -57.25 L 26.125 -57.25 L 26.125 -57.328125 L 27.6875 -57.328125 L 26.625 -57.171875 L 26.703125 -57 L 28.171875 -57.25 L 28.5 -57.25 L 28.015625 -57.328125 L 30.21875 -57.75 L 32.03125 -57.75 L 32.765625 -58.3125 L 34.96875 -59.375 L 34.078125 -57.328125 L 34.40625 -57.25 L 33.90625 -57 L 33.25 -55.453125 L 32.921875 -53.65625 L 34.484375 -57.25 L 34.734375 -56.515625 L 36.03125 -56.515625 L 36.9375 -57.328125 L 48.078125 -57.328125 L 49.640625 -56.671875 L 49.96875 -56.03125 L 51.4375 -55.53125 L 50.53125 -54.21875 L 49.0625 -55.859375 L 48.40625 -56.265625 L 50.125 -53.484375 L 47.171875 -54.46875 L 49.21875 -52.171875 L 46.84375 -50.953125 L 44.46875 -51.515625 L 43.65625 -51.6875 L 43.578125 -51.4375 L 45.546875 -50.953125 L 45.453125 -50.859375 L 45.953125 -50.78125 L 46.03125 -49.46875 L 46.1875 -49.640625 L 46.1875 -50.203125 L 47.34375 -50.859375 L 47.421875 -50.953125 L 47.421875 -50.859375 L 48.578125 -51.4375 L 49.640625 -51.265625 L 49.640625 -48.328125 L 48.40625 -45.875 L 47.671875 -42.671875 L 48.578125 -43.40625 L 48.984375 -40.375 L 47.421875 -39.71875 L 37.109375 -39.71875 L 38 -40.953125 L 38.578125 -44.140625 L 38.25 -44.0625 L 37.84375 -41.6875 L 36.859375 -40.46875 L 30.640625 -40.46875 L 27.765625 -41.03125 L 25.96875 -38.984375 L 25.96875 -37.4375 L 25.140625 -35.21875 L 26.125 -35.296875 L 28.171875 -35.0625 L 28.421875 -34.640625 L 32.84375 -34.640625 L 32.921875 -34.8125 L 33.015625 -34.640625 L 37.34375 -34.640625 L 38.328125 -34.15625 L 38.984375 -35.140625 L 41.859375 -34.5625 L 43.8125 -34.8125 L 41.6875 -37.109375 L 46.359375 -37.109375 L 47.921875 -36.453125 L 47.015625 -36.453125 L 47.921875 -34.234375 L 48.578125 -32.6875 L 48.578125 -29.5625 L 47.75 -29.890625 L 46.28125 -28.25 L 44.234375 -29.15625 L 45.625 -32.109375 L 48.078125 -31.703125 L 47.09375 -34.078125 L 45.625 -34.3125 L 44.234375 -31.375 L 43.328125 -32.515625 L 43.171875 -32.359375 L 43.8125 -31.609375 L 41.859375 -31.375 L 40.625 -30.46875 L 40.796875 -28.09375 L 43.328125 -29.984375 L 44.140625 -27.1875 L 44.234375 -26.78125 L 44.234375 -27.109375 L 46.28125 -26.203125 L 46.765625 -23.671875 L 48.40625 -20.5625 L 48.578125 -22.28125 L 47.015625 -25.234375 L 46.515625 -27.765625 L 48.65625 -26.53125 L 48 -29.40625 L 48.8125 -29.078125 L 48.8125 -24.484375 L 48.65625 -22.109375 L 48.578125 -22.203125 L 48.578125 -18.265625 L 47.921875 -16.625 L 46.359375 -16.046875 L 35.46875 -16.046875 L 35.625 -16.296875 L 35.296875 -18.59375 L 35.953125 -19.734375 L 38.09375 -21.296875 L 41.4375 -19.828125 L 43.90625 -20.3125 L 44.46875 -23.34375 L 44.3125 -24.25 L 43.90625 -22.03125 L 41.4375 -21.546875 L 38.09375 -23.015625 L 40.875 -25.0625 L 40.625 -27.6875 L 38.171875 -28.90625 L 36.9375 -28.90625 L 36.78125 -27.9375 L 37.59375 -27.9375 L 40.296875 -26.625 L 35.390625 -23.015625 L 34.734375 -21.875 L 34.734375 -21.78125 L 34.890625 -21.625 L 35.625 -21.703125 L 35.140625 -21.375 L 36.03125 -20.640625 L 34.890625 -20.484375 L 35.0625 -19.578125 L 34.3125 -19.5 L 33.75 -17.6875 L 34.890625 -17.609375 L 31.78125 -17.609375 L 31.28125 -19.328125 L 30.640625 -19.40625 L 29.078125 -17.609375 L 28.171875 -18.671875 L 25.5625 -18.671875 L 27.109375 -20.484375 L 26.296875 -20.5625 L 23.828125 -18.015625 L 23.421875 -19.578125 L 21.046875 -19.65625 L 20.15625 -22.765625 L 18.421875 -24.078125 L 16.546875 -24.078125 L 15.8125 -25.796875 L 15.3125 -25.875 L 14.75 -26.703125 L 14 -26.53125 L 14.328125 -27.1875 L 13.84375 -27.765625 L 14.828125 -27.9375 L 15.890625 -29.8125 L 16.625 -28.25 L 17.03125 -28.34375 L 15.71875 -31.046875 L 15.640625 -31.125 L 13.84375 -27.9375 L 11.546875 -27.84375 L 10 -28.671875 L 9.671875 -27.765625 L 11.390625 -26.859375 L 13.671875 -26.953125 L 15.15625 -25.0625 L 13.84375 -25.140625 L 14.984375 -22.53125 L 16.875 -22.53125 L 18.59375 -21.21875 L 15.484375 -20.96875 L 15.71875 -19.734375 L 18.75 -19.984375 L 19.65625 -16.875 L 18.1875 -16.703125 L 18.75 -16.546875 L 22.109375 -16.875 L 22.765625 -16.875 L 23.671875 -17.78125 L 23.671875 -16.796875 L 24.484375 -16.796875 L 24.90625 -15.234375 L 24.734375 -15.078125 L 26.453125 -14.5 L 26.453125 -13.015625 L 25.46875 -12.609375 L 23.828125 -11.71875 L 22.9375 -11.140625 L 22.9375 -7.375 L 23.34375 -7.125 L 24.328125 -5.328125 L 24.328125 -2.21875 L 23.671875 -0.65625 L 24.078125 -0.078125 L 22.609375 -0.25 L 22.109375 0 L 19 0 L 17.78125 -0.328125 L 19.5 -0.15625 L 19.734375 -0.328125 L 20.15625 -0.25 L 18.515625 -2.453125 L 20.71875 -2.375 L 19.5 -2.453125 L 18.59375 -4.421875 L 18.84375 -4.671875 L 18.515625 -5.15625 L 18.34375 -5 L 18.1875 -5 L 17.609375 -4.421875 L 14.5 -5 L 15.96875 -6.71875 Z M 53 -57.5 L 53 -55.9375 L 52.828125 -55.859375 L 51.109375 -58.640625 Z M 6.46875 -57.25 L 8.03125 -57.90625 L 6.140625 -56.34375 Z M 5.15625 -57.25 L 4.828125 -56.34375 L 4.5 -54.0625 L 4.5 -55.703125 Z M 29.15625 -56.84375 L 30.71875 -56.515625 L 30.796875 -56.765625 L 29.890625 -57 Z M 32.59375 -51.1875 L 33.015625 -53.328125 L 34.15625 -52.578125 L 36.03125 -52.75 L 34.8125 -56.4375 L 34.734375 -56.4375 L 35.71875 -53.5625 L 32.84375 -53.328125 L 30.21875 -53 L 29.734375 -50.859375 Z M 36.28125 -55.609375 L 38 -55.203125 L 38.171875 -55.859375 L 36.9375 -56.1875 Z M 37.84375 -52.75 L 36.859375 -51.265625 L 36.28125 -51.265625 L 35.953125 -48.984375 L 37.921875 -51.359375 L 40.796875 -51.265625 L 41.4375 -52.015625 L 39.640625 -52.015625 L 39.71875 -52.09375 L 38.828125 -52.09375 L 39.8125 -53.5625 L 40.546875 -53.734375 L 40.796875 -54.21875 L 38.09375 -53.734375 Z M 20.390625 -44.234375 L 18.84375 -41.03125 L 20.234375 -41.109375 L 21.78125 -44.390625 L 23.34375 -44.71875 L 23.34375 -44.890625 L 20.890625 -44.390625 L 22.9375 -47.015625 L 23.171875 -46.515625 L 24.328125 -46.765625 L 25.875 -43.5 L 25.234375 -43.734375 L 24.734375 -43.25 L 24.8125 -42.015625 L 26.859375 -44.0625 L 29.40625 -44.640625 L 30.3125 -42.265625 L 30.640625 -43.328125 L 30.21875 -43.25 L 30.875 -43.8125 L 30.953125 -43.984375 L 31.046875 -43.984375 L 32.59375 -45.21875 L 32.765625 -44.0625 L 33.65625 -44.0625 L 33.328125 -45.953125 L 33.65625 -46.03125 L 33.984375 -48.8125 L 36.28125 -51.265625 L 35.71875 -51.265625 L 34.484375 -49.71875 L 34.734375 -51.515625 L 32.84375 -49.546875 L 32.359375 -45.953125 L 30.640625 -44.46875 L 30.140625 -43.328125 L 29.890625 -44.140625 L 29 -45.703125 L 26.703125 -45.125 L 27.1875 -46.1875 L 26.859375 -46.1875 L 25.875 -44.0625 L 24.328125 -47.34375 L 22.859375 -47.015625 L 21.296875 -49.21875 L 22.53125 -51.4375 L 22.765625 -54.21875 L 22.28125 -54.0625 L 22.109375 -52.171875 L 21.046875 -50.203125 L 21.21875 -49.96875 L 19.328125 -49.71875 L 18.84375 -48.890625 L 20.640625 -49.140625 L 22.203125 -46.9375 L 20.3125 -44.5625 Z M 49.46875 -52.171875 L 50.375 -53.484375 L 50.53125 -52.015625 Z M 12.203125 -52.75 L 9.828125 -52.34375 L 10.3125 -51.109375 L 10.734375 -51.1875 Z M 26.703125 -51.515625 L 29.734375 -50.859375 Z M 10.734375 -49.140625 L 13.765625 -49.21875 L 13.671875 -50.375 L 11.875 -50.375 Z M 38.828125 -48.734375 L 40.046875 -48.578125 L 40.046875 -48.984375 L 40.875 -49.21875 L 39.484375 -49.390625 Z M 42.34375 -48.25 L 42.515625 -46.03125 L 43.5 -48.578125 L 42.34375 -48.25 L 42.671875 -48.984375 L 41.109375 -49.21875 L 40.875 -48.484375 Z M 17.203125 -48.65625 L 18.015625 -48.734375 L 17.859375 -49.0625 L 17.03125 -49.0625 L 16.546875 -48.15625 L 15.890625 -45.046875 L 16.046875 -44.390625 L 16.546875 -46.84375 L 17.359375 -48.40625 Z M 48.328125 -43.40625 L 49.0625 -46.609375 L 50.296875 -49.0625 L 50.296875 -44.234375 L 49.21875 -44.140625 Z M 46.359375 -47.59375 L 46.28125 -48.484375 L 46.03125 -48.484375 L 46.03125 -47.828125 L 45.953125 -47.671875 Z M 37.84375 -46.03125 L 37.1875 -46.109375 L 35.875 -44.390625 L 36.78125 -44.5625 Z M 9.75 -44.71875 L 9.171875 -44.46875 L 9.171875 -44.140625 L 9.90625 -44.390625 L 10.078125 -44.5625 Z M 44.640625 -44.0625 Z M 13.1875 -42.265625 L 14.578125 -40.296875 L 15.078125 -40.296875 L 13.515625 -42.421875 L 16.46875 -41.109375 L 16.21875 -42.265625 L 13.515625 -43.40625 L 12.046875 -43.328125 L 12.28125 -42.1875 Z M 16.875 -40.796875 L 17.359375 -40.375 L 18.421875 -40.546875 L 18.015625 -40.875 Z M 19.734375 -38.421875 L 20.796875 -38.578125 L 20.484375 -35.71875 L 20.796875 -35.625 L 20.640625 -36.203125 L 20.796875 -36.203125 L 21.21875 -39.15625 L 20.15625 -38.984375 L 18.84375 -40.140625 L 18.34375 -39.484375 L 18.75 -39.15625 L 18.09375 -39.0625 L 18.015625 -38.90625 L 17.859375 -38.984375 L 16.140625 -38.734375 L 17.53125 -37.4375 L 17.125 -36.78125 L 17.203125 -36.78125 L 17.28125 -36.859375 L 17.359375 -36.78125 L 17.53125 -36.859375 L 18.75 -38.578125 L 19.25 -36.453125 L 19.65625 -36.53125 L 19.578125 -35.71875 L 19.65625 -35.625 L 19.65625 -35.953125 L 20.3125 -35.796875 Z M 14.5 -38.09375 L 14.25 -38.65625 L 13.34375 -38.734375 L 13.765625 -37.59375 L 14.171875 -37.015625 L 16.140625 -38.734375 L 15.8125 -39.234375 L 15.484375 -38.984375 L 15.8125 -38.578125 L 15.15625 -38.578125 Z M 6.546875 -38.5 L 6.546875 -38.25 L 7.203125 -38.171875 L 7.203125 -38.5 Z M 12.453125 -37.921875 L 10.234375 -37.84375 L 10.15625 -37.671875 L 12.203125 -37.671875 Z M 4.265625 -37.515625 L 4.75 -33.828125 L 4.265625 -32.6875 Z M 17.78125 -36.53125 L 18.34375 -36.125 L 18.515625 -36.203125 L 17.859375 -36.6875 Z M 22.4375 -35.71875 L 22.6875 -35.140625 L 23.421875 -34.96875 L 24.328125 -35.0625 L 23.828125 -36.359375 L 23.171875 -36.28125 L 21.453125 -35.46875 L 21.703125 -35.390625 Z M 13.84375 -35.0625 L 12.203125 -32.6875 L 13.4375 -32.921875 L 13.84375 -34.96875 L 13.921875 -34.890625 L 15.078125 -34.890625 L 14.828125 -35.21875 L 13.84375 -35.21875 L 11.390625 -35.875 L 11.390625 -35.71875 Z M 19.40625 -33.25 L 18.515625 -34.96875 L 18.34375 -34.8125 L 19.40625 -32.59375 L 22.359375 -32.59375 L 22.359375 -32.6875 L 19.40625 -32.6875 L 19.65625 -35.46875 L 19.578125 -35.46875 Z M 15.8125 -34.484375 L 16.21875 -35.140625 L 16.140625 -35.21875 L 15.71875 -34.5625 Z M 10 -32.03125 L 10.078125 -29.5625 L 10.3125 -30.140625 L 10.15625 -33.015625 L 10.234375 -33.75 L 9.171875 -34.734375 L 8.6875 -33.171875 Z M 27.765625 -30.3125 L 29.65625 -32.6875 L 29.984375 -32.109375 L 32.4375 -31.9375 L 31.78125 -31.125 L 31.859375 -30.953125 L 32.6875 -30.640625 L 32.765625 -29.328125 L 33.25 -28.421875 L 32.84375 -28.578125 L 32.921875 -28.015625 L 33.25 -28.015625 L 33.25 -28.421875 L 33.578125 -30.21875 L 33.328125 -30.640625 L 33.65625 -30.640625 L 33.828125 -31.609375 L 36.03125 -31.28125 L 37.265625 -32.59375 L 37.84375 -33.5 L 37.765625 -33.578125 L 36.359375 -32.03125 L 34.15625 -32.359375 L 33.25 -34.3125 L 33.171875 -34.234375 L 33.828125 -32.84375 L 32.265625 -32.765625 L 31.9375 -32.1875 L 31.28125 -32.1875 L 31.203125 -32.109375 L 31.125 -32.1875 L 29.984375 -32.1875 L 29.5625 -32.84375 L 26.53125 -33.015625 L 27.765625 -30.46875 L 27.28125 -28.25 L 27.6875 -27.9375 L 27.765625 -27.84375 L 28.75 -27.84375 L 29.15625 -26.203125 L 29.984375 -27.515625 L 28.75 -27.84375 Z M 38.171875 -33.90625 L 38.328125 -34.15625 L 38.09375 -33.90625 Z M 16.625 -32.765625 L 17.28125 -34.078125 L 16.140625 -33.828125 Z M 13.1875 -30.0625 L 15.640625 -31.203125 L 14.25 -32.515625 L 13.84375 -32.359375 L 13.84375 -31.125 L 13.4375 -31.046875 Z M 26.046875 -29.5625 L 26.296875 -28.90625 L 26.375 -28.828125 L 26.625 -29.15625 L 26.046875 -30.140625 L 25.5625 -29.40625 L 25.640625 -29.328125 L 25.96875 -29.15625 Z M 44.234375 -27.03125 L 43.40625 -29.8125 L 44.3125 -28.671875 Z M 21.78125 -28.578125 L 21.375 -27.84375 L 22.203125 -28.09375 L 22.359375 -28.34375 L 21.78125 -28.671875 L 20.96875 -29.8125 L 20.96875 -29.734375 Z M 47.75 -29.734375 L 48.40625 -26.859375 L 46.28125 -28.09375 Z M 31.53125 -24.078125 L 33.984375 -23.75 L 34.078125 -24.578125 L 33.25 -25.234375 L 32.515625 -24.078125 L 32.109375 -25.46875 L 31.453125 -25.46875 L 29.234375 -25.71875 L 29.40625 -25.140625 Z M 29.078125 -21.375 L 29.5625 -21.296875 L 30.140625 -21.953125 L 31.28125 -21.78125 L 31.453125 -21.953125 L 29.484375 -24.90625 L 29.484375 -24.8125 L 28.671875 -25.234375 L 28.75 -24.734375 L 27.9375 -23.671875 L 29.328125 -21.625 L 26.859375 -21.953125 L 26.859375 -22.4375 L 26.375 -21.953125 L 27.4375 -20.796875 L 27.9375 -21.375 L 28.171875 -20.390625 Z M 33.984375 -23.421875 L 33.90625 -23.421875 Z M 28.34375 -19.828125 L 28.34375 -19.90625 Z M 12.125 -12.9375 L 12.125 -12.859375 L 13.671875 -12.78125 L 15.390625 -12.453125 L 15.3125 -11.875 L 16.953125 -9.90625 L 18.34375 -10.40625 L 19.40625 -11.140625 L 18.421875 -12.453125 L 18.75 -12.53125 L 17.453125 -12.78125 L 18.84375 -14.421875 L 15.5625 -14.25 L 16.140625 -17.28125 L 16.046875 -17.78125 L 13.515625 -18.515625 L 12.9375 -15.484375 L 10.40625 -15.3125 L 10 -17.9375 L 9.828125 -16.796875 L 9.578125 -16.625 L 10 -14.09375 L 12.203125 -14.25 L 12.125 -14.25 L 12.609375 -14.25 L 12.9375 -15.3125 L 14.171875 -14.328125 L 15.390625 -14.421875 L 14 -12.78125 L 12.453125 -14 Z M 21.125 -14.328125 L 21.21875 -14.25 L 22.6875 -14 L 22.765625 -14.09375 Z M 10.3125 -9.34375 L 12.203125 -10.078125 L 11.71875 -10.15625 L 10.484375 -9.671875 Z M 21.875 -4.421875 L 21.953125 -3.765625 L 23.09375 -2.375 L 23.671875 -2.453125 L 23.265625 -4.421875 L 21.953125 -7.125 L 20.15625 -8.03125 Z M 25.5625 -5.328125 L 24.578125 -7.125 L 25.5625 -6.796875 Z M 7.046875 -3.109375 L 5.5625 -3.03125 L 7.78125 -3.109375 L 8.1875 -4.015625 L 7.78125 -4.75 Z M 13.921875 -2.703125 L 12.859375 -0.65625 L 12.9375 -0.578125 L 14.09375 -2.703125 L 14.25 -4.015625 L 14.171875 -4.265625 Z M 10.234375 -1.796875 L 11.140625 -2.453125 L 10.96875 -2.859375 L 10 -2.21875 Z M 22.203125 -2.296875 L 22.28125 -2.296875 L 21.453125 -2.375 L 21.21875 -2.375 Z M 22.4375 -2.296875 Z M 22.4375 -2.296875 "/></g></g></g><g fill="#10182D" fill-opacity="1"><g transform="translate(39.03961, 99.151083)"><g><path d="M 6.03125 -44.5625 L 6.03125 -44.296875 L 7.390625 -44.46875 L 10.96875 -45.578125 L 10.796875 -45.75 L 7.390625 -44.71875 Z M 45.828125 -57.390625 L 46.09375 -56.203125 L 44.296875 -58.25 Z M 25 -56.625 L 25.9375 -57.90625 L 24.484375 -57.3125 L 24.921875 -56.375 Z M 52.203125 -52.296875 L 50.59375 -54.421875 L 53.140625 -52.125 Z M 19.8125 -53.734375 L 19.984375 -53.5625 L 20.0625 -54.25 L 19.8125 -54.421875 L 19.734375 -53.5625 Z M 18.28125 -50.515625 L 17.9375 -48.984375 L 18.453125 -49.140625 L 18.796875 -50.421875 L 21.421875 -50.84375 L 21.265625 -51.953125 L 21.34375 -53.3125 L 20.5 -52.890625 L 21.265625 -52.125 L 19.21875 -51.78125 Z M 44.125 -52.640625 L 44.21875 -52.375 L 44.296875 -52.375 L 44.46875 -53.3125 L 43.796875 -52.96875 L 43.703125 -52.640625 Z M 42.09375 -50 L 41.75 -51.28125 L 41.40625 -51.875 L 40.46875 -51.875 L 40.90625 -50.25 L 38.515625 -50.34375 L 39.109375 -49.3125 L 41.234375 -49.234375 L 40.640625 -47.703125 L 41.15625 -47.875 L 41.234375 -48.046875 L 41.0625 -48.375 L 41.234375 -48.375 L 41.328125 -48.71875 L 41.578125 -48.296875 L 44.640625 -47.625 L 44.125 -46.421875 L 44.296875 -46.59375 L 44.640625 -46.59375 L 45.65625 -49.234375 Z M 46.9375 -46 L 46.859375 -46 L 46.9375 -45.0625 L 47.359375 -45.0625 L 47.78125 -47.625 L 49.578125 -50.421875 L 49.3125 -50.671875 L 48.375 -49.234375 L 47.78125 -51.359375 L 47.109375 -50.515625 L 47.453125 -49.234375 Z M 27.296875 -48.296875 L 23.8125 -48.21875 L 26.1875 -50.671875 Z M 14.109375 -46.6875 L 14.875 -45.828125 L 14.96875 -46.09375 L 14.375 -46.859375 L 14.109375 -46.859375 L 11.65625 -48.046875 L 8.671875 -47.703125 L 8.921875 -47.53125 L 11.65625 -47.78125 L 14.109375 -46.59375 Z M 18.03125 -46.9375 L 18.203125 -47.875 L 17.4375 -46.6875 L 16.75 -44.296875 L 18.875 -44.21875 L 19.046875 -44.71875 L 19.984375 -46.171875 L 19.296875 -47.28125 Z M 26.875 -45.65625 L 28.0625 -47.625 L 28.484375 -45.484375 Z M 13.09375 -43.875 L 14.03125 -44.21875 L 14.203125 -44.640625 L 13.09375 -44.21875 L 13.09375 -44.125 L 12.5 -41.75 L 12.578125 -41.75 Z M 48.71875 -43.96875 L 49.484375 -44.5625 L 48.296875 -44.46875 L 47.953125 -44.125 L 48.71875 -43.53125 Z M 21.09375 -39.796875 L 20.328125 -42.09375 L 18.28125 -42.171875 L 18.359375 -42.515625 L 17.34375 -41.578125 L 16.671875 -44.21875 L 16.671875 -44.125 L 15.21875 -44.125 L 14.203125 -42.265625 L 16.671875 -42.171875 L 17.171875 -39.96875 L 19.390625 -42 L 20.328125 -39.109375 L 17.34375 -39.375 L 17.265625 -37.75 L 17.34375 -37.40625 L 17.34375 -37.84375 L 18.796875 -37.75 L 19.734375 -38.78125 L 19.8125 -37.671875 L 19.984375 -37.578125 L 19.984375 -37.921875 L 21.34375 -39.109375 L 21.9375 -41.828125 L 22.109375 -41.40625 L 22.359375 -41.921875 L 21.765625 -42 L 21.59375 -42 Z M 13.09375 -40.3125 L 14.796875 -39.03125 L 15.140625 -38.6875 L 15.390625 -38.6875 L 14.796875 -39.203125 L 13.1875 -40.46875 Z M 25.25 -38.171875 L 25.171875 -38.171875 L 26.53125 -38.09375 L 26.875 -39.203125 L 25.25 -39.375 Z M 10.890625 -37.84375 L 10.203125 -36.046875 L 11.21875 -35.96875 L 11.90625 -37.671875 Z M 16.671875 -37.40625 L 16.75 -37.5 L 16.40625 -37.75 L 16.328125 -37.671875 Z M 37.15625 -37.578125 L 36.8125 -37.671875 L 36.734375 -37.671875 Z M 15.734375 -36.5625 L 16.328125 -37.078125 L 15.8125 -37.15625 L 15.640625 -36.90625 Z M 19.984375 -35.203125 L 20.15625 -35.28125 L 20.0625 -36.5625 L 19.890625 -36.484375 Z M 15.984375 -36.140625 L 16.328125 -35.375 L 17.171875 -35.453125 L 17.265625 -36.3125 Z M 9.265625 -34.6875 L 9.015625 -33.59375 L 9.78125 -33.84375 L 9.609375 -32.5625 L 9.859375 -32.5625 L 10.203125 -35.203125 L 11.5625 -32.5625 L 10.03125 -35.625 L 9.78125 -35.03125 L 8.921875 -34.78125 Z M 17.265625 -35.453125 Z M 21.34375 -33.84375 L 22.875 -33.25 L 23.984375 -35.125 L 22.953125 -35.28125 L 22.015625 -34.953125 Z M 38.78125 -28.90625 L 39.28125 -27.96875 L 40.21875 -27.8125 L 40.984375 -28.578125 L 40.8125 -28.90625 L 40.5625 -31.796875 L 42.765625 -32.3125 L 42.859375 -32.484375 L 38.859375 -31.625 L 40.046875 -34.859375 L 40.21875 -34.953125 L 40.140625 -35.28125 L 40.140625 -35.203125 L 39.703125 -34.6875 L 39.03125 -32.828125 L 38.265625 -32.734375 L 37.84375 -32.3125 L 37.671875 -31.46875 L 38.515625 -31.546875 L 38.6875 -29.84375 L 39.453125 -28.90625 L 38.6875 -29 Z M 29.671875 -31.96875 L 29.171875 -34.09375 L 29 -33.84375 L 29.421875 -32.0625 Z M 6.375 -32.65625 L 6.71875 -31.890625 L 7.65625 -32.90625 L 7.234375 -33.671875 Z M 26.4375 -31.546875 L 26.1875 -31.625 L 26.109375 -31.625 L 25.9375 -29.9375 L 26.53125 -28.484375 L 27.546875 -28.828125 L 27.71875 -29.078125 L 27.640625 -29.078125 L 27.640625 -29.421875 L 27.546875 -29.765625 L 27.71875 -29.765625 L 27.890625 -31.46875 L 26.53125 -31.71875 Z M 30.609375 -29.25 L 30.09375 -30.265625 L 29.9375 -30.09375 L 30.359375 -29.328125 Z M 44.8125 -27.46875 L 45.40625 -25.078125 L 44.71875 -22.109375 L 46.6875 -22.453125 L 46.859375 -22.359375 L 47.625 -25.25 L 47.28125 -26.4375 L 46.59375 -26.953125 L 45.65625 -30.1875 L 45.578125 -30.1875 Z M 14.875 -27.96875 L 12.421875 -27.96875 L 13.015625 -26.78125 L 14.875 -26.78125 L 16.078125 -27.046875 L 16.078125 -28.3125 Z M 38.78125 -21.859375 L 40.046875 -18.96875 L 40.8125 -18.703125 L 39.453125 -21.765625 L 39.203125 -21.859375 L 39.03125 -24.15625 L 39.796875 -24.3125 L 40.046875 -25 L 39.28125 -27.640625 L 37.25 -27.96875 L 38.34375 -24.15625 L 38.609375 -24.15625 Z M 41.15625 -26.953125 L 41.671875 -25.9375 L 41.828125 -26.359375 L 41.578125 -26.875 L 41.15625 -27.046875 Z M 26.953125 -24.3125 L 27.203125 -23.546875 L 27.46875 -23.8125 L 27.296875 -24.3125 L 27.046875 -24.40625 Z M 48.984375 -21.59375 L 48.890625 -22.28125 L 47.78125 -22.015625 Z M 28.40625 -21.09375 L 24.921875 -21.515625 L 26.1875 -21.859375 Z M 44.640625 -21.765625 Z M 56.546875 -20.0625 L 54.765625 -19.5625 L 56.296875 -17.34375 L 58.328125 -17.515625 Z M 37.921875 -19.296875 L 37.078125 -19.21875 L 37.15625 -19.125 L 38.171875 -19.21875 Z M 39.96875 -13.78125 L 39.03125 -12.84375 L 39.546875 -11.984375 L 39.96875 -12.671875 L 40.734375 -12.75 L 40.140625 -13.78125 L 40.734375 -17.34375 L 40.640625 -17.4375 L 39.96875 -17.59375 L 38.78125 -19.046875 L 38.609375 -19.125 L 38.09375 -17.859375 L 38.34375 -17.59375 L 38.265625 -17 L 38.859375 -16.078125 L 38.09375 -16.328125 L 37.75 -14.625 Z M 44.5625 -17.515625 L 43.03125 -17.09375 L 43.453125 -17 L 45.234375 -17.515625 L 47.875 -17.6875 L 47.875 -17.859375 L 47.28125 -17.859375 L 44.8125 -17.765625 Z M 13.859375 -17.171875 L 13.4375 -17.09375 L 15.21875 -15.390625 L 15.3125 -15.8125 L 15.21875 -15.90625 L 15.21875 -15.8125 L 15.21875 -15.90625 Z M 53.5625 -16.84375 L 55.09375 -16.40625 L 54.671875 -17.09375 L 53.484375 -16.921875 Z M 17.09375 -14.453125 L 17.515625 -14.03125 L 16.75 -16.5 L 16.5 -16.40625 Z M 3.484375 -16.40625 L 4.34375 -15.21875 L 4.421875 -15.21875 L 3.578125 -16.40625 Z M 19.125 -12.421875 L 18.53125 -12.421875 L 18.703125 -11.3125 L 19.734375 -11.3125 L 21.421875 -13.78125 L 21.765625 -12.84375 L 22.359375 -13.609375 L 21.421875 -16.328125 L 19.734375 -13.859375 L 18.53125 -15.046875 L 17.765625 -13.78125 L 18.203125 -13.4375 L 18.28125 -13.4375 L 18.28125 -13.265625 Z M 36.5625 -13.6875 L 37.40625 -11.65625 L 37.578125 -11.8125 L 37.328125 -14.28125 L 36.3125 -15.734375 Z M 35.28125 -6.625 L 36.140625 -6.546875 L 36.21875 -6.546875 L 36.5625 -7.0625 L 36.734375 -7.0625 L 37.671875 -8.421875 L 38.859375 -7.234375 L 38.9375 -7.0625 L 38.859375 -7.0625 L 39.453125 -5.609375 L 40.21875 -5.265625 L 40.46875 -5.703125 L 40.3125 -5.609375 L 39.703125 -7.3125 L 39.03125 -7.234375 L 37.75 -8.59375 L 39.03125 -9.015625 L 38.9375 -9.359375 L 40.046875 -9.4375 L 40.140625 -9.4375 L 39.375 -9.78125 L 39.453125 -9.953125 L 38.171875 -9.53125 L 37.578125 -8.59375 L 36.65625 -10.796875 L 36.5625 -10.796875 L 36.65625 -10.890625 L 36.65625 -10.96875 L 35.203125 -11.046875 L 34.1875 -14.96875 L 34.015625 -15.5625 L 33.421875 -14.03125 L 33.75 -12.671875 L 34.78125 -8.765625 L 37.25 -8.59375 L 36.21875 -7.0625 L 35.03125 -6.625 L 34.953125 -6.203125 L 35.203125 -6.203125 Z M 29.59375 -14.546875 L 29.84375 -13.6875 L 30.015625 -14.109375 L 29.671875 -14.703125 Z M 44.5625 -14.03125 L 44.46875 -13.9375 L 44.890625 -13.1875 Z M 4 -12.578125 L 4 -12.25 L 5.109375 -10.625 L 5.4375 -10.890625 L 4.078125 -12.84375 L 3.828125 -12.84375 Z M 27.046875 -7.3125 L 27.46875 -5.359375 L 27.640625 -6.296875 L 27.046875 -9.265625 L 26.015625 -11.140625 L 22.625 -12.25 L 24.828125 -9.609375 L 26.015625 -9.1875 Z M 43.03125 -10.96875 L 42.6875 -12.078125 L 41.671875 -11.984375 L 41.578125 -11.65625 Z M 41.15625 -9.78125 L 41.328125 -9.53125 L 42.4375 -9.609375 L 41.40625 -11.3125 L 41.0625 -10.546875 L 40.8125 -10.453125 L 41.0625 -9.78125 Z M 22.1875 -9.78125 L 22.109375 -9.6875 L 22.109375 -9.609375 Z M 20.921875 -8.25 L 22.015625 -9.609375 L 20.578125 -8.84375 L 20.5 -8.765625 Z M 56.375 -7.828125 L 55.609375 -7.390625 L 56.453125 -9.015625 Z M 53.90625 -8.671875 L 55.53125 -8.328125 L 54.671875 -6.71875 L 52.890625 -4.765625 L 50 -2.8125 L 51.703125 -5.609375 Z M 49.3125 -5.015625 L 48.984375 -7.3125 L 50.84375 -5.859375 Z M 46.171875 -7.0625 L 46.421875 -5.1875 L 46.6875 -5.265625 L 46.515625 -6.71875 Z M 36.484375 0.078125 L 33.25 0.078125 L 34.6875 -2.203125 Z M 2.046875 -14.28125 L 2.46875 -15.140625 L 2.046875 -15.90625 L 2.203125 -15.90625 L 1.53125 -17.34375 L 3.40625 -19.21875 L 7.390625 -19.21875 L 7.65625 -19.984375 L 12.5 -19.984375 L 11.3125 -17.171875 L 11.984375 -17.171875 L 13.09375 -19.890625 L 16.328125 -19.890625 L 13.9375 -17.265625 L 15.8125 -18.03125 L 15.8125 -18.359375 L 15.90625 -18.109375 L 16.40625 -18.28125 L 16.234375 -17.265625 L 16.328125 -17.09375 L 16.5 -17.265625 L 16.40625 -17.515625 L 16.671875 -17.4375 L 17.6875 -18.53125 L 17.6875 -17.265625 L 18.359375 -17.09375 L 19.5625 -19.21875 L 16.40625 -19.8125 L 16.328125 -21.421875 L 19.5625 -21.421875 L 22.53125 -19.734375 L 25.171875 -18.796875 L 27.296875 -18.203125 L 29.5 -18.03125 L 30.4375 -16.40625 L 30.1875 -15.8125 L 31.03125 -15.8125 L 33.921875 -16.578125 L 34.859375 -18.96875 L 36.046875 -18.796875 L 36.046875 -18.96875 L 36.90625 -19.046875 L 36.90625 -19.125 L 35.375 -18.96875 L 36.3125 -21.421875 L 35.890625 -24.40625 L 35.625 -24.40625 L 36.046875 -21.421875 L 35.125 -18.96875 L 31.96875 -21.171875 L 31.546875 -21.34375 L 31.71875 -21.421875 L 30.859375 -22.015625 L 30.09375 -21.59375 L 30.09375 -21.34375 L 29.59375 -21.34375 L 29.59375 -21.421875 L 28.3125 -21.59375 L 26.78125 -22.1875 L 26.359375 -22.109375 L 26.4375 -22.359375 L 26.109375 -22.453125 L 26.53125 -22.875 L 26.875 -24.15625 L 26.1875 -23.546875 L 25.421875 -25.515625 L 26.953125 -25.078125 L 26.703125 -26.53125 L 26.609375 -26.875 L 26.53125 -26.78125 L 25.9375 -28.234375 L 25 -27.96875 L 25.421875 -25.25 L 24.921875 -22.953125 L 21.171875 -23.640625 L 19.390625 -23.984375 L 17.6875 -24.40625 L 16.078125 -25 L 16.078125 -23.71875 L 14.375 -24.3125 L 11.21875 -25.9375 L 13.265625 -25 L 12.5 -26.53125 L 11.21875 -27.125 L 9.78125 -28.140625 L 8.421875 -29.171875 L 8.765625 -30.609375 L 7.0625 -31.125 L 8.421875 -28.40625 L 5.953125 -30.953125 L 4.421875 -33.671875 L 4.25 -33.75 L 3.65625 -35.453125 L 3.3125 -37.15625 L 3.0625 -38.9375 L 2.96875 -40.640625 L 3.3125 -44.390625 L 3.484375 -42.59375 L 6.03125 -43.109375 L 6.03125 -43.359375 L 3.484375 -42.859375 L 3.3125 -44.5625 L 3.734375 -46.171875 L 5.1875 -49.3125 L 7.140625 -52.125 L 7.65625 -52.203125 L 8.328125 -52.96875 L 10.71875 -54.9375 L 10.96875 -55.609375 L 11.3125 -55.359375 L 12.421875 -56.125 L 13.9375 -56.890625 L 15.46875 -57.5625 L 18.703125 -58.671875 L 22.109375 -59.4375 L 19.390625 -57.21875 L 21.265625 -56.890625 L 20.234375 -54.5 L 21.34375 -53.40625 L 21.34375 -54.328125 L 22.109375 -54.078125 L 22.53125 -54.421875 L 21.265625 -56.03125 L 23.640625 -57.0625 L 23.640625 -57.390625 L 22.53125 -57.5625 L 23.8125 -58.59375 L 23.8125 -58.921875 L 23.890625 -58.671875 L 25.25 -59.78125 L 26.609375 -60.03125 L 26.359375 -60.875 L 27.71875 -60.96875 L 31.203125 -61.21875 L 32.734375 -61.140625 L 35.203125 -60.875 L 36.21875 -59.859375 L 38.78125 -59.359375 L 38.515625 -58.671875 L 38.515625 -58.59375 L 39.203125 -57.984375 L 39.796875 -57.828125 L 40.46875 -57.90625 L 40.640625 -58.421875 L 39.375 -58.15625 L 39.546875 -59.09375 L 40.734375 -58.671875 L 41.15625 -59.953125 L 44.296875 -58.59375 L 44.296875 -56.03125 L 43.03125 -54.328125 L 44.125 -54.9375 L 43.875 -53.40625 L 44.640625 -54.421875 L 44.640625 -56.96875 L 46.421875 -54.9375 L 46.171875 -56.203125 L 49.0625 -54.25 L 50.59375 -52.125 L 51.609375 -51.953125 L 52.046875 -50.25 L 50.421875 -46.765625 L 52.640625 -47.359375 L 51.875 -45.75 L 52.640625 -45.65625 L 54 -48.640625 L 51.78125 -48.046875 L 53.40625 -51.53125 L 52.96875 -53.140625 L 54.078125 -51.875 L 55.953125 -48.984375 L 57.140625 -45.75 L 55.53125 -42.171875 L 48.71875 -42.171875 L 48.71875 -42.6875 L 46.421875 -42.6875 L 46.6875 -43.109375 L 44.640625 -44.5625 L 46.9375 -44.5625 L 46.9375 -44.984375 L 44.5625 -44.984375 L 43.53125 -44.71875 L 43.625 -44.640625 L 43.453125 -44.640625 L 43.359375 -44.296875 L 43.109375 -44.640625 L 42.515625 -44.46875 L 42.6875 -44.71875 L 41.75 -44.71875 L 41.671875 -43.96875 L 44.390625 -43.875 L 42.59375 -41.75 L 44.640625 -42.265625 L 43.625 -40.46875 L 41.15625 -40.46875 L 41.234375 -40.21875 L 39.546875 -40.21875 L 40.21875 -40.8125 L 40.046875 -41.828125 L 39.28125 -41.828125 L 38.265625 -40.90625 L 37.5 -41.75 L 37.40625 -41.671875 L 37.5 -41.75 L 37.15625 -42.09375 L 37.671875 -42.09375 L 38.265625 -43.203125 L 38.015625 -43.875 L 36.3125 -43.453125 L 36.3125 -41.234375 L 34.6875 -43.03125 L 34.609375 -42.859375 L 35.125 -42.265625 L 34.265625 -42.59375 L 33.59375 -42.265625 L 33.59375 -42.765625 L 32.65625 -43.109375 L 31.796875 -42.765625 L 31.203125 -43.625 L 30.609375 -43.796875 L 30.953125 -43.96875 L 30.609375 -44.46875 L 30.1875 -46.59375 L 29.078125 -48.984375 L 31.71875 -49.0625 L 31.890625 -51.109375 L 34.359375 -48.890625 L 35.625 -52.203125 L 36.21875 -52.046875 L 36.140625 -52.46875 L 36.390625 -52.96875 L 35.28125 -53.234375 L 33.59375 -54.5 L 35.890625 -54.421875 L 34.609375 -58.15625 L 37.328125 -58.59375 L 37.5 -58.59375 L 37.15625 -58.84375 L 34.78125 -59.609375 L 32.0625 -59.1875 L 33.328125 -55.4375 L 31.03125 -55.53125 L 32.734375 -54.25 L 31.46875 -50.9375 L 29 -53.140625 L 28.828125 -51.109375 L 26.1875 -51.015625 L 25.421875 -51.109375 L 23.8125 -49.484375 L 22.453125 -49.75 L 21.9375 -49.234375 L 22.109375 -48.125 L 23.71875 -47.875 L 23.8125 -48.21875 L 27.296875 -48.296875 L 26.109375 -46.34375 L 23.390625 -45.65625 L 23.296875 -45.15625 L 21.859375 -45.328125 L 21.9375 -45.234375 L 24.921875 -44.890625 L 24.40625 -43.96875 L 26.109375 -44.390625 L 27.46875 -44.296875 L 27.71875 -44.5625 L 28.90625 -42.859375 L 25.84375 -42.09375 L 25.515625 -41.671875 L 25.34375 -41.40625 L 27.203125 -40.3125 L 27.46875 -40.90625 L 27.296875 -41.5 L 30.703125 -40.734375 L 32.3125 -39.703125 L 30.78125 -37.328125 L 29.59375 -40.390625 L 27.890625 -40.390625 L 28.734375 -38.515625 L 27.125 -38.015625 L 27.46875 -38.015625 L 26.4375 -34.859375 L 27.8125 -34.609375 L 26.78125 -32.390625 L 27.8125 -33.59375 L 27.890625 -34.609375 L 29 -34.953125 L 28.828125 -35.28125 L 27.640625 -38.015625 L 29.671875 -38.015625 L 30.78125 -35.28125 L 32.0625 -37.328125 L 33.671875 -35.796875 L 34.09375 -35.890625 L 36.5625 -35.625 L 35.453125 -32.90625 L 32.3125 -32.390625 L 30.09375 -31.890625 L 30.4375 -31.796875 L 31.96875 -32.140625 L 35.125 -32.65625 L 36.140625 -29.328125 L 32.3125 -29.9375 L 38.515625 -28.90625 L 38.4375 -29.078125 L 36.65625 -29.328125 L 36.984375 -30.703125 L 36.484375 -31.296875 L 36.984375 -31.375 L 36.3125 -33.421875 L 37.40625 -36.140625 L 39.28125 -35.546875 L 38.609375 -37.15625 L 37.75 -37.40625 L 34.6875 -36.984375 L 35.96875 -37.5 L 34.09375 -37.671875 L 32.3125 -39.375 L 34.6875 -38.78125 L 37.84375 -39.203125 L 38.09375 -39.546875 L 39.03125 -37.5 L 40.140625 -37.25 L 40.21875 -36.734375 L 41.5 -36.390625 L 41.40625 -36.3125 L 44.71875 -35.375 L 45.484375 -34.359375 L 44.21875 -33.84375 L 45.484375 -32.65625 L 46.9375 -32.3125 L 45.828125 -30.53125 L 47.625 -30.4375 L 49.140625 -32.5625 L 48.21875 -32.828125 L 46.9375 -34.015625 L 48.21875 -34.515625 L 47.453125 -35.625 L 49.0625 -35.03125 L 50.671875 -34.359375 L 53.734375 -32.65625 L 52.125 -32.65625 L 51.875 -32.234375 L 52.375 -31.796875 L 53.65625 -30.703125 L 54.765625 -29.328125 L 54.5 -28.140625 L 53.65625 -25 L 52.890625 -21.9375 L 51.015625 -19.5625 L 50.9375 -19.46875 L 51.78125 -19.296875 L 52.296875 -18.625 L 52.125 -19.125 L 54.328125 -19.734375 L 55.953125 -21.765625 L 56.71875 -24.828125 L 57.5625 -27.96875 L 57.828125 -29.171875 L 59.4375 -26.015625 L 59.953125 -24.40625 L 60.28125 -22.703125 L 60.546875 -19.21875 L 60.453125 -17.171875 L 60.203125 -15.46875 L 59.09375 -12.15625 L 58.25 -10.625 L 58.5 -11.984375 L 59.4375 -14.03125 L 56.375 -14.703125 L 56.125 -15.046875 L 55.703125 -14.109375 L 55.4375 -12.671875 L 53.40625 -9.859375 L 53.484375 -11.140625 L 51.875 -11.484375 L 49.65625 -8.421875 L 49.234375 -11.21875 L 47.875 -10.96875 L 48.125 -9.1875 L 47.1875 -9.359375 L 47.625 -8.921875 L 47.875 -6.46875 L 48.546875 -6.296875 L 46.859375 -3.484375 L 46.6875 -5.1875 L 46.421875 -5.109375 L 46.421875 -4.765625 L 44.984375 -4.34375 L 42.515625 -3.484375 L 42.515625 -3.578125 L 42 -3.40625 L 38.6875 -2.640625 L 36.90625 -2.296875 L 36.484375 -2.96875 L 34.6875 -3.65625 L 34.859375 -4.5 L 34.4375 -4.5 L 33.25 -2.546875 L 36.484375 -2.546875 L 34.78125 -2.375 L 31.296875 -2.125 L 27.296875 -2.125 L 27.125 -1.28125 L 25.59375 0.34375 L 23.890625 -1.1875 L 23.984375 -3.40625 L 22.703125 -3.578125 L 21 -3.90625 L 19.890625 -4.25 L 19.8125 -4.171875 L 19.8125 -4.25 L 18.796875 -4.5 L 18.625 -4.34375 L 18.28125 -4.671875 L 17.6875 -4.84375 L 16.078125 -5.4375 L 16.15625 -5.859375 L 16.578125 -6.796875 L 16.328125 -7.828125 L 15.5625 -7.90625 L 15.90625 -11.046875 L 15.5625 -11.65625 L 15.390625 -10.625 L 12.15625 -9.78125 L 13.015625 -8.25 L 12.671875 -5.109375 L 14.109375 -4.9375 L 13.265625 -3.0625 L 13.1875 -2.71875 L 11.5625 -3.40625 L 10.03125 -4.171875 L 8.59375 -5.109375 L 5.859375 -7.3125 L 4.671875 -8.59375 L 3.65625 -9.953125 L 3.578125 -10.71875 L 2.546875 -12.578125 Z M 2.046875 -14.28125 "/></g></g></g><g fill="#10182D" fill-opacity="1"><g transform="translate(158.794797, 57.595584)"><g><path d="M 7.921875 -17.96875 L 7.75 -18.625 L 8.484375 -18.59375 Z M 3.734375 -18.3125 L 4.1875 -18.578125 L 3.8125 -17.96875 Z M 1.5 -5.90625 L 0.953125 -5.75 L 1.03125 -6.453125 L 0.734375 -7.09375 L 1.109375 -7.03125 L 1.234375 -7.40625 L 1.71875 -8.34375 L 2.03125 -8.796875 L 2.390625 -9.171875 L 2.875 -9.515625 L 3.1875 -9.953125 L 3.15625 -9.984375 L 3.21875 -10.140625 L 2.875 -10.53125 L 2.5625 -11.015625 L 2.3125 -11.53125 L 2.15625 -12.0625 L 2.0625 -13.171875 L 2.15625 -14.3125 L 2.296875 -14.8125 L 2.6875 -14.890625 L 2.46875 -14.984375 L 1.84375 -14.890625 L 2.0625 -15.390625 L 2.296875 -15.78125 L 2.453125 -16.015625 L 2.578125 -16.3125 L 2.578125 -16.28125 L 3.3125 -17.078125 L 3.734375 -17.390625 L 3.8125 -17.078125 L 3.84375 -17.078125 L 4.03125 -17.390625 L 3.953125 -17.515625 L 4.109375 -17.515625 L 4.1875 -17.65625 L 4.65625 -17.890625 L 4.734375 -17.8125 L 5.65625 -18.171875 L 6.1875 -18.3125 L 6.6875 -18.421875 L 7.75 -18.578125 L 7.921875 -17.90625 L 8.5625 -17.328125 L 8.671875 -17.328125 L 8.171875 -17.78125 L 8.71875 -18.421875 L 9.59375 -18.515625 L 10.140625 -18.328125 L 11.03125 -18.328125 L 11.625 -18.25 L 12.09375 -18.25 L 12.21875 -18.46875 L 12.71875 -18.171875 L 12.984375 -18.125 L 14.046875 -17.75 L 14.21875 -17.671875 L 14.3125 -17.890625 L 14.78125 -17.625 L 15.234375 -17.28125 L 15.640625 -16.90625 L 16.3125 -16.046875 L 16.25 -15.96875 L 15.484375 -15.671875 L 15.515625 -15.625 L 15.96875 -15.8125 L 15.625 -14.625 L 16.015625 -14.75 L 16.328125 -15.8125 L 16.390625 -15.890625 L 16.65625 -15.40625 L 16.828125 -14.890625 L 16.484375 -14.78125 L 16.671875 -13.90625 L 17.015625 -13.90625 L 17.046875 -13.359375 L 16.78125 -13.203125 L 15.734375 -13.46875 L 16.125 -13.78125 L 15.90625 -13.78125 L 15.4375 -13.375 L 15.703125 -13.375 L 15.703125 -13.40625 L 16.75 -13.140625 L 17.015625 -13.296875 L 16.984375 -12.703125 L 16.90625 -12.140625 L 16.828125 -11.90625 L 16.78125 -11.71875 L 16.75 -11.71875 L 16.546875 -11.09375 L 16.359375 -10.859375 L 15.703125 -10.640625 L 15.96875 -9.5625 L 15.96875 -9.53125 L 16.203125 -9.328125 L 16.28125 -9.328125 L 16.40625 -9.109375 L 16.75 -8.796875 L 17.328125 -7.90625 L 17.15625 -7.609375 L 17.125 -7.6875 L 16.5625 -7.75 L 16.0625 -7.875 L 16.0625 -7.84375 L 16.046875 -7.828125 L 17.09375 -7.5625 L 17.125 -7.5625 L 17.171875 -7.53125 L 17.359375 -7.796875 L 17.578125 -7.296875 L 17.5 -7.328125 L 17.65625 -6.828125 L 17.15625 -6.328125 L 17.3125 -6.21875 L 17.234375 -6.1875 L 17.078125 -5.0625 L 16.734375 -4.40625 L 17.703125 -4.296875 L 18.09375 -5.0625 L 18.25 -6.21875 L 18.78125 -6.765625 L 18.890625 -6.25 L 18.859375 -5.078125 L 18.78125 -4.53125 L 18.65625 -4 L 18.4375 -3.484375 L 18.171875 -2.984375 L 18.125 -2.984375 L 17.890625 -2.5625 L 17.15625 -1.734375 L 16.734375 -1.390625 L 16.890625 -1.921875 L 16.671875 -2.921875 L 16.203125 -2.8125 L 16.390625 -1.921875 L 15.703125 -1.921875 L 15.5625 -1.453125 L 15.140625 -1.53125 L 14.671875 -1.234375 L 14.203125 -1 L 13.671875 -0.8125 L 13.140625 -0.65625 L 12.09375 -0.390625 L 11.75 -1.03125 L 11.25 -0.765625 L 11.015625 -1.421875 L 10.984375 -1.21875 L 10.78125 -1.453125 L 10.75 -1.421875 L 10.984375 -1.1875 L 10.4375 -1.234375 L 10.328125 -1.1875 L 9.75 -0.96875 L 9.03125 -1.125 L 8.40625 -2 L 7.953125 -1.765625 L 7.90625 -1.375 L 7.421875 -2 L 7.40625 -2 L 7.90625 -1.3125 L 7.515625 -0.34375 L 6.375 -0.8125 L 7.03125 0.046875 L 6.5 -0.046875 L 5.421875 -0.3125 L 4.921875 -0.46875 L 3.921875 -0.921875 L 4.03125 -1.03125 L 3.953125 -1.078125 L 3.53125 -1.390625 L 3.109375 -1.734375 L 3.578125 -1.390625 L 2.734375 -2.140625 L 4.0625 -2.03125 L 4.1875 -2.578125 L 4.65625 -2.875 L 4.609375 -3.109375 L 4.875 -3.03125 L 4.875 -3 L 5.53125 -2.796875 L 5.296875 -3.796875 L 4.71875 -4.578125 L 4.078125 -5.421875 L 4.296875 -5.640625 L 4.265625 -5.71875 L 4.40625 -5.75 L 4.609375 -5.984375 L 5.328125 -5.984375 L 6.140625 -7.0625 L 6.5625 -6.921875 L 6.453125 -7.03125 L 5.953125 -7.1875 L 5.921875 -7.453125 L 5.875 -7.484375 L 5.90625 -7.140625 L 4.71875 -6.953125 L 4.734375 -6.875 L 5.90625 -7.0625 L 5.078125 -5.984375 L 5.0625 -6.0625 L 4.375 -6.0625 L 3.84375 -5.953125 L 3.734375 -5.328125 L 4.0625 -4.90625 L 4.640625 -4.109375 L 4.875 -3.109375 L 3.984375 -3.390625 L 3.6875 -3.21875 L 3.5625 -2.65625 L 2.21875 -2.765625 L 1.890625 -3.21875 L 1.375 -4.15625 L 1.046875 -5.21875 L 1.1875 -5.21875 L 1.15625 -5.71875 L 1.546875 -5.84375 L 1.5 -5.953125 L 1.96875 -6.328125 L 1.890625 -5.765625 L 2.21875 -5.1875 L 2.3125 -5.1875 L 2.6875 -4.84375 L 2.765625 -5.03125 L 2.578125 -5.1875 L 2.609375 -5.25 L 2.5625 -5.21875 L 1.96875 -6.375 L 2.65625 -5.90625 L 2.890625 -5.71875 L 3.0625 -5.796875 L 3.140625 -6 L 2.65625 -6.34375 L 2.140625 -6.71875 L 1.578125 -6.828125 L 1.375 -6.84375 L 1.640625 -6.53125 L 1.3125 -6.296875 Z M 13.203125 -17.828125 L 12.796875 -18.046875 L 12.328125 -18.046875 L 12.171875 -17.8125 Z M 7.1875 -16.203125 L 7.921875 -16.15625 L 8.796875 -16.359375 L 9.21875 -15.5625 L 9.296875 -15.59375 L 9.796875 -15.625 L 10.5625 -15.625 L 10.5625 -15.734375 L 9.796875 -15.734375 L 9.296875 -15.703125 L 8.90625 -16.40625 L 8.03125 -16.203125 L 7.296875 -16.25 L 7.03125 -16.9375 L 7.453125 -17.65625 L 7.421875 -17.75 L 6.921875 -16.890625 Z M 11.984375 -16.46875 L 12.21875 -16.40625 L 12.375 -17.171875 L 12.0625 -16.984375 L 11.984375 -16.59375 L 11.75 -15.703125 L 11.78125 -15.703125 Z M 4.140625 -16.90625 L 4.234375 -17.125 L 4.109375 -16.9375 Z M 9.453125 -16.78125 L 8.84375 -16.828125 L 8.875 -16.59375 L 9.453125 -16.546875 L 9.6875 -16.5625 L 9.6875 -16.9375 L 9.453125 -16.984375 Z M 4.6875 -15.625 L 4.6875 -15.59375 L 4.71875 -16.484375 L 5.21875 -15.59375 L 5.5625 -16.328125 L 5.953125 -16.828125 L 5.90625 -16.859375 L 5.5625 -16.4375 L 5.21875 -15.703125 L 4.71875 -16.59375 L 4.6875 -16.59375 L 4.6875 -16.484375 L 4.609375 -16.59375 L 4.34375 -16.59375 L 4.6875 -16.15625 L 3.84375 -16.015625 L 3.765625 -15.484375 Z M 15.046875 -16.390625 L 14.546875 -15.9375 L 14.140625 -16.671875 L 14.140625 -16.484375 L 14.203125 -16.515625 L 14.59375 -15.78125 L 14.5625 -15.640625 L 15.0625 -15.4375 L 15.171875 -15.484375 L 14.828125 -15.625 L 15.234375 -15.96875 Z M 10.5625 -15.859375 L 10.59375 -16.3125 L 10.5625 -15.890625 Z M 13.328125 -15.984375 L 13.328125 -15.90625 L 13.40625 -16.015625 L 13.09375 -16.234375 L 12.9375 -16.25 Z M 13.625 -15.359375 L 13.09375 -14.59375 L 13.515625 -14.71875 L 13.96875 -15.359375 L 13.515625 -15.9375 L 13.484375 -15.96875 L 13.328125 -15.90625 L 13.359375 -15.703125 Z M 11.203125 -14.75 L 11.453125 -15.125 L 11.453125 -15.203125 L 11.171875 -14.78125 Z M 4.734375 -14.78125 L 4.734375 -14.890625 L 4.5 -14.4375 L 4.53125 -14.359375 Z M 4 -14.671875 L 3.5 -14.625 L 3.71875 -14.515625 L 4.0625 -14.546875 Z M 11.515625 -14.4375 L 11.515625 -14.46875 L 11.453125 -14.46875 L 11.453125 -14.4375 Z M 8.265625 -11.4375 L 8.375 -11.4375 L 8.375 -11.484375 L 7.828125 -11.5625 L 8.328125 -12.21875 L 9.09375 -11.53125 L 8.953125 -11.515625 L 9.78125 -11.484375 L 9.109375 -11.03125 L 9.25 -10.171875 L 9.375 -10.171875 L 9.4375 -10.109375 L 9.328125 -10.78125 L 9.984375 -11.21875 L 10.4375 -11.40625 L 10.28125 -10.609375 L 10.328125 -10.609375 L 11.09375 -10.59375 L 10.59375 -11.203125 L 11.640625 -11.40625 L 11.484375 -10.828125 L 11.875 -10.359375 L 12.0625 -11.03125 L 11.828125 -11.53125 L 11.640625 -11.828125 L 10.859375 -11.703125 L 10.53125 -11.75 L 10.703125 -12.546875 L 10.25 -12.359375 L 10.796875 -12.625 L 11.28125 -13.015625 L 11.53125 -13.671875 L 11.53125 -13.71875 L 11.515625 -14.125 L 10.78125 -14.28125 L 11.375 -13.484375 L 10.515625 -14.25 L 10.109375 -14.4375 L 9.953125 -14.25 L 9.359375 -14.328125 L 8.1875 -13.96875 L 7.515625 -14.0625 L 7.5625 -13.96875 L 8.1875 -13.859375 L 7.828125 -13.375 L 7.765625 -13.46875 L 7.53125 -13.296875 L 7.53125 -12.328125 L 8.265625 -12.21875 L 7.765625 -11.5625 L 7.84375 -11.40625 L 7.90625 -11.453125 L 8.03125 -11.21875 L 8.0625 -11.21875 L 8.03125 -11.203125 L 8.296875 -10.75 L 8.34375 -11.25 Z M 13.359375 -13.25 L 13.546875 -13.21875 L 13.25 -13.90625 L 13.9375 -13.640625 L 14.46875 -13.671875 L 14.5625 -13.90625 L 13.671875 -13.859375 L 12.984375 -14.125 Z M 3.921875 -13.828125 L 3.921875 -13.796875 L 4.265625 -13.828125 L 4.265625 -13.859375 Z M 14.71875 -13.375 L 15.25 -12.515625 L 15.59375 -12.5625 L 15.09375 -13.359375 Z M 6.109375 -12.328125 L 6.375 -12.875 L 6.296875 -13.171875 L 6.484375 -13.140625 L 6.53125 -13.21875 L 6.53125 -13.125 L 6.6875 -13.09375 L 6.6875 -13.21875 L 6.71875 -13.21875 L 6.59375 -13.25 L 5.90625 -13.296875 L 5.875 -13.21875 L 5.875 -13.25 L 4.734375 -13.125 L 4.734375 -13.09375 L 5.828125 -13.25 L 5.40625 -12.359375 L 5.53125 -11.78125 L 6.25 -11.375 L 6.90625 -10.5625 L 6.953125 -9.796875 L 6.71875 -8.984375 L 6.828125 -9.015625 L 7 -9.6875 L 7.375 -9.265625 L 7.40625 -9.296875 L 6.953125 -9.796875 L 7.375 -10.5625 L 7.1875 -10.796875 L 7 -10.453125 L 6.953125 -11.0625 L 6.75 -11.359375 L 6.03125 -11.75 L 6.328125 -12.203125 L 6.34375 -12.25 Z M 4.265625 -12.59375 L 4.578125 -13.015625 L 4.375 -13.015625 L 4.140625 -12.625 L 4.234375 -12.484375 Z M 13.828125 -10.21875 L 13.203125 -11.03125 L 13.125 -11.03125 L 13.140625 -11.109375 L 13.0625 -11.203125 L 13.203125 -11.203125 L 13.359375 -11.625 L 13.0625 -11.984375 L 13.703125 -12.171875 L 13.984375 -12.5625 L 13.796875 -12.640625 L 12.78125 -12.328125 L 12.78125 -12.296875 L 13.171875 -11.828125 L 12.875 -11.171875 L 13.21875 -10.859375 L 13.828125 -10.0625 L 13.828125 -10.25 Z M 11.53125 -12.484375 L 11.71875 -12.171875 L 11.9375 -12.21875 L 11.90625 -12.328125 L 11.78125 -12.515625 Z M 3.953125 -12.296875 L 4.1875 -12.375 L 4.21875 -12.453125 L 4 -12.40625 Z M 5.765625 -11.75 L 5.640625 -12.328125 L 6.0625 -12.203125 Z M 14.546875 -11.484375 L 14.171875 -11.03125 L 14.0625 -11.03125 L 13.859375 -10.359375 L 14.140625 -10.5625 L 14.125 -10.984375 L 14.484375 -11.4375 L 15.171875 -11.703125 L 15.75 -11.703125 L 15.75 -11.75 L 15.234375 -11.75 Z M 12.625 -10.53125 L 12.640625 -10.53125 L 12.671875 -10.59375 L 12.703125 -10.984375 L 12.625 -11.0625 L 12.453125 -10.859375 Z M 8.53125 -3.5625 L 8.765625 -3.765625 L 8.828125 -4.265625 L 10.40625 -4.453125 L 10.515625 -3.5625 L 10.140625 -3.21875 L 10.1875 -3.21875 L 10.53125 -3.5 L 10.609375 -3.1875 L 11.21875 -3.375 L 11.359375 -3.609375 L 11.359375 -3.71875 L 11.28125 -3.6875 L 11.171875 -3.5 L 11.140625 -3.65625 L 10.671875 -3.5 L 11.09375 -4.265625 L 11.0625 -4.40625 L 11.140625 -4.421875 L 11.203125 -4.484375 L 11.21875 -4.421875 L 11.4375 -4.453125 L 11.09375 -4.53125 L 10.484375 -4.453125 L 10.90625 -4.765625 L 11.25 -5.25 L 11.21875 -5.640625 L 11.40625 -6.109375 L 11.90625 -5.484375 L 12.25 -5.40625 L 12.0625 -5.25 L 12.203125 -5.078125 L 12.25 -5.140625 L 12.59375 -5.53125 L 12.515625 -4.71875 L 11.78125 -4.53125 L 11.796875 -4.484375 L 12.40625 -4.640625 L 12.140625 -4.0625 L 12.21875 -3.875 L 12.59375 -4.640625 L 12.671875 -5.453125 L 13.546875 -5.34375 L 14.21875 -5.484375 L 14.9375 -4.609375 L 15.203125 -4.90625 L 14.703125 -5.484375 L 14.640625 -6 L 14.703125 -6.265625 L 14.28125 -6.84375 L 14.171875 -6.828125 L 14.125 -6.1875 L 14.171875 -5.65625 L 13.484375 -5.53125 L 12.78125 -5.609375 L 12.78125 -5.5 L 12.703125 -5.609375 L 12.625 -5.640625 L 12.671875 -5.65625 L 12.4375 -5.984375 L 12.25 -5.765625 L 12.28125 -6.171875 L 11.90625 -6.640625 L 11.71875 -6.171875 L 11.671875 -7.484375 L 11.875 -7.84375 L 11.9375 -9.015625 L 10.90625 -8.984375 L 10.453125 -9.828125 L 10.4375 -9.875 L 9.5625 -9.90625 L 9.859375 -9.375 L 10.296875 -8.53125 L 9.640625 -8.53125 L 9.53125 -8.765625 L 9.21875 -8.5625 L 8.953125 -9.03125 L 8.5625 -10.015625 L 8.6875 -10.03125 L 8.609375 -10.171875 L 8.5625 -10.171875 L 7.953125 -10.03125 L 8.0625 -9.78125 L 8.40625 -10.03125 L 8.671875 -9.5625 L 8.140625 -9.609375 L 8.34375 -9.0625 L 7.828125 -8.671875 L 7.828125 -8.640625 L 8.53125 -8.5625 L 9.328125 -8.53125 L 9.4375 -8.609375 L 9.453125 -8.53125 L 9.59375 -8.53125 L 9.796875 -8.03125 L 10.21875 -8.03125 L 10.375 -8.53125 L 11.40625 -8.5625 L 11.359375 -7.40625 L 10.75 -7.75 L 10.90625 -7.484375 L 11.359375 -7.21875 L 11.140625 -6.875 L 11.203125 -5.71875 L 10.40625 -7.03125 L 10.1875 -7.515625 L 10.171875 -7.484375 L 10.375 -7 L 9.359375 -7.25 L 9.9375 -7.59375 L 9.875 -7.6875 L 9.21875 -7.265625 L 8.671875 -7.21875 L 8.140625 -7.03125 L 7.828125 -7.03125 L 7.5625 -7.5625 L 7.03125 -7.421875 L 7.0625 -7.421875 L 6.6875 -6.875 L 6.90625 -6.828125 L 7.03125 -7.03125 L 7.0625 -7.109375 L 7.109375 -7.140625 L 7.296875 -7.40625 L 7.265625 -7.171875 L 7.6875 -7.265625 L 7.953125 -6.75 L 8.296875 -6.75 L 7.6875 -6.1875 L 7.84375 -5.15625 L 7.796875 -4.765625 L 8.828125 -4.484375 L 8.09375 -3.90625 L 8.21875 -3.578125 L 8.75 -3.53125 Z M 14.625 -8.1875 L 14.890625 -7.765625 L 15.25 -8.609375 L 15.171875 -9.265625 L 15.59375 -9.21875 L 15.625 -9.265625 L 14.546875 -9.375 L 14.515625 -9.359375 L 14.40625 -9.640625 L 14.015625 -9.59375 L 14.015625 -9.109375 L 14.671875 -9.21875 L 14.75 -8.5625 L 14.515625 -8.03125 Z M 5.5 -8.515625 L 5.5 -8.484375 L 5.53125 -8.484375 L 6.1875 -9.015625 Z M 13.359375 -8.84375 L 13.4375 -8.84375 L 13.5625 -9.015625 L 13.484375 -9.015625 Z M 5.34375 -7.765625 L 5.453125 -7.71875 L 5.578125 -8.296875 L 5.53125 -8.4375 L 5.5 -8.4375 Z M 13.0625 -8.109375 L 13.296875 -7.453125 L 13.375 -7.421875 L 13.4375 -7.265625 L 13.859375 -7.53125 L 13.859375 -7.59375 L 13.984375 -7.59375 L 14.125 -7.671875 L 13.859375 -8.09375 L 13.71875 -7.84375 Z M 4.296875 -7.953125 L 3.796875 -7.875 L 4.296875 -7.921875 Z M 15.25 -6.984375 L 15.203125 -7.09375 L 14.90625 -6.453125 L 15.234375 -5.984375 L 15.671875 -6.953125 L 15.9375 -7.765625 L 15.546875 -7.453125 L 15.40625 -7.453125 Z M 3 -7.6875 L 3.0625 -7.328125 L 3.078125 -7.328125 L 3.0625 -7.6875 Z M 5.921875 -7.453125 L 5.921875 -7.484375 L 5.90625 -7.515625 Z M 14.546875 -7.25 L 14.671875 -6.984375 L 15.171875 -7.109375 L 15.015625 -7.484375 L 14.96875 -7.484375 L 14.71875 -7.453125 Z M 3.984375 -6.875 L 4.03125 -7 L 3.953125 -7.21875 L 3.1875 -7.1875 L 3.421875 -6.84375 Z M 16.4375 -6.765625 L 16.46875 -6.75 L 16.46875 -6.765625 Z M 16.46875 -6.71875 L 16.59375 -6.453125 L 16.65625 -6.59375 Z M 13.296875 -6.03125 L 13.296875 -6.34375 L 12.984375 -6.40625 L 12.828125 -6.296875 L 12.796875 -5.75 Z M 1.6875 -5.265625 L 1.71875 -5.40625 L 1.578125 -5.71875 L 1.53125 -5.65625 Z M 11.328125 -5.15625 L 11.484375 -4.6875 L 11.515625 -4.734375 L 11.359375 -5.15625 Z M 11.5625 -4.734375 L 11.703125 -4.609375 L 12.125 -5 L 11.875 -5.0625 Z M 14.28125 -4.71875 L 13.828125 -3.578125 Z M 16.125 -3.640625 L 17.015625 -3.609375 L 16.671875 -4.296875 L 15.59375 -4.421875 L 15.96875 -3.65625 Z M 12.859375 -3.71875 L 13.546875 -3.453125 L 13.640625 -3.5 L 13.09375 -3.71875 L 12.28125 -3.734375 L 12.296875 -3.734375 Z M 14.671875 -2.734375 L 14.59375 -2.765625 L 14.9375 -1.96875 L 15.5625 -1.96875 L 15.25 -2.71875 L 15.703125 -2.8125 L 15.46875 -3.609375 L 15.09375 -3.640625 L 14.40625 -3.734375 L 14.390625 -3.71875 Z M 14.484375 -2.71875 L 14.390625 -2.453125 L 14.203125 -1.609375 L 14.21875 -1.640625 L 14.390625 -2.265625 L 14.59375 -2.765625 L 14.09375 -2.84375 L 14.359375 -3.71875 L 14.140625 -3.609375 L 13.90625 -2.8125 Z M 7.765625 -2.65625 L 8.5625 -2.84375 L 8.53125 -2.921875 L 7.609375 -2.71875 L 7.953125 -2.140625 L 7.953125 -2.3125 Z M 6.21875 -2.875 L 6.21875 -2.84375 L 6.609375 -2.6875 L 6.640625 -2.71875 Z M 11.859375 -2.734375 L 12.0625 -2.34375 L 12.671875 -2.234375 L 12.4375 -2.640625 Z M 10.1875 -2.140625 L 11.109375 -2.375 L 11.171875 -2.6875 L 10.90625 -2.640625 L 10.71875 -2.3125 L 10.671875 -2.5625 L 10.1875 -2.421875 L 10.1875 -2.453125 L 10.03125 -1.6875 L 10.109375 -1.6875 L 10.1875 -2.109375 L 10.59375 -1.609375 L 10.640625 -1.609375 Z M 3.078125 -1.53125 L 2.609375 -1.875 L 2.21875 -2.265625 Z M 9.375 -2.109375 L 9.25 -2.265625 L 9.0625 -2.265625 L 9.375 -1.875 L 9.53125 -2.265625 L 9.4375 -2.265625 Z M 5.1875 -1.890625 L 5.796875 -1.953125 L 5.75 -2.0625 L 5.15625 -2 Z M 8.109375 0.265625 L 8.21875 0.203125 L 7.6875 0.1875 L 7.140625 0.109375 L 6.484375 -0.765625 L 7.609375 -0.296875 L 7.90625 -1 L 7.90625 -1.21875 L 8.40625 -1.46875 L 9.03125 -0.609375 L 9.75 -0.453125 L 9.90625 0.3125 L 9.359375 0.3125 L 8.671875 0.296875 L 8.640625 0.296875 Z M 5.984375 -1.375 L 5.6875 -1.390625 L 6.078125 -1.15625 L 6 -1.34375 Z M 11.359375 -0.453125 L 11.859375 -0.71875 L 12.203125 -0.078125 L 11.640625 0 L 11.109375 0.078125 L 10.015625 0.125 L 9.859375 -0.609375 L 10.4375 -0.8125 L 11.09375 -1.1875 Z M 11.359375 -0.453125 "/></g></g></g><g fill="#10182D" fill-opacity="1"><g transform="translate(158.724648, 79.295001)"><g><path d="M 7.84375 -19.078125 L 8.375 -19.125 L 8.03125 -18.625 Z M 3.34375 -1.875 L 2.984375 -2.875 L 3.0625 -2.984375 L 3 -3.0625 L 3 -3.109375 L 2.984375 -3.078125 L 2.34375 -3.234375 L 1.796875 -4.140625 L 2.21875 -4.5625 L 1.640625 -5.484375 L 2.0625 -5.53125 L 1.953125 -6.34375 L 1.890625 -6.921875 L 2 -6.984375 L 1.71875 -7.515625 L 2.140625 -7.921875 L 2.140625 -8.015625 L 1.71875 -7.5625 L 1.125 -7.21875 L 1.109375 -7.765625 L 1.078125 -8.875 L 1.078125 -9.4375 L 1.265625 -9.40625 L 1.6875 -10.28125 L 1.6875 -10.375 L 1.3125 -10.21875 L 1.296875 -10.09375 L 1.125 -10.875 L 1.109375 -10.875 L 1.109375 -10.953125 L 1.125 -11.4375 L 1.6875 -11.359375 L 1.6875 -11.4375 L 1.125 -11.515625 L 1.1875 -12.0625 L 1.34375 -13.203125 L 1.96875 -13.375 L 1.578125 -13.96875 L 2.5 -13.828125 L 2.03125 -13.375 L 2.390625 -13.21875 L 2.609375 -13.890625 L 2.53125 -13.890625 L 2.53125 -13.90625 L 1.8125 -14.015625 L 2.078125 -14.703125 L 2.34375 -15.171875 L 2.609375 -15.359375 L 2.5625 -15.46875 L 2.15625 -15.171875 L 2.796875 -16.046875 L 3.140625 -16.4375 L 3.53125 -16.78125 L 3.953125 -17.125 L 4.140625 -17.203125 L 4.453125 -17.078125 L 4.484375 -17.078125 L 4.453125 -17.171875 L 4.40625 -17.15625 L 4.453125 -17.234375 L 4.40625 -17.40625 L 4.65625 -17.546875 L 4.796875 -17.75 L 5.765625 -18.203125 L 6.265625 -18.359375 L 6.796875 -18.5 L 6.59375 -18.09375 L 6 -18.09375 L 5.21875 -17.40625 L 4.578125 -17.234375 L 4.484375 -17.078125 L 5.265625 -17.328125 L 6 -17.96875 L 6.59375 -17.96875 L 6.796875 -18.328125 L 7.21875 -18.078125 L 7.671875 -16.96875 L 7.671875 -17.015625 L 7.25 -18.078125 L 7.21875 -18.078125 L 6.796875 -18.359375 L 7.84375 -18.546875 L 8.015625 -18.15625 L 8.03125 -18.15625 L 8.765625 -16.96875 L 8.71875 -17.203125 L 8.09375 -18.25 L 8.03125 -18.25 L 8.0625 -18.3125 L 8.03125 -18.328125 L 8.09375 -18.328125 L 8.375 -18.78125 L 8.71875 -18.28125 L 8.765625 -18.28125 L 8.375 -18.828125 L 8.90625 -18.890625 L 10.03125 -18.828125 L 11.140625 -18.78125 L 11.328125 -18.359375 L 11.90625 -18.234375 L 12.140625 -18.3125 L 12.125 -18.203125 L 12.296875 -18.15625 L 13.296875 -17.859375 L 13.4375 -18 L 13.46875 -17.78125 L 13.828125 -17.65625 L 13.671875 -17.59375 L 13.890625 -17.15625 L 14.046875 -17.734375 L 13.671875 -18.46875 L 14.140625 -18.234375 L 15.046875 -17.65625 L 15.46875 -17.3125 L 16.203125 -16.5625 L 15.59375 -16.25 L 15.515625 -16.046875 L 15.546875 -16.0625 L 15.4375 -15.203125 L 15.515625 -14.75 L 15.890625 -15.640625 L 16.484375 -15.96875 L 17.09375 -15.09375 L 17.46875 -14.328125 L 17.859375 -15.125 L 18.3125 -14.125 L 17.46875 -14.28125 L 17.546875 -14.140625 L 17.625 -13.90625 L 17.75 -14.203125 L 17.90625 -13.140625 L 17.828125 -13.21875 L 17.859375 -13.125 L 17.78125 -13.25 L 17.46875 -13.5625 L 17.546875 -13.75 L 17.390625 -14.125 L 17.078125 -13.515625 L 17.171875 -13.359375 L 16.984375 -13.359375 L 16.96875 -13.296875 L 16.96875 -13.21875 L 17.4375 -13.125 L 17.15625 -12.484375 L 16.90625 -12.828125 L 16.859375 -12.484375 L 17.171875 -12.484375 L 16.78125 -11.90625 L 16.8125 -11.828125 L 17.25 -12.484375 L 17.515625 -11.4375 L 17.59375 -11.4375 L 17.59375 -11.453125 L 17.359375 -12.484375 L 17.8125 -12.0625 L 17.75 -11.875 L 17.78125 -11.328125 L 17.734375 -11.296875 L 17.75 -10.90625 L 17.78125 -10.359375 L 17.78125 -9.09375 L 17.96875 -9.0625 L 17.9375 -8.515625 L 17.890625 -7.40625 L 17.828125 -6.765625 L 17.65625 -6.71875 L 16.46875 -6.71875 L 16.859375 -7.53125 L 16.171875 -7.59375 L 16.4375 -8.53125 L 16.09375 -8.609375 L 15.96875 -8.328125 L 16.28125 -8.296875 L 15.984375 -7.171875 L 16.671875 -7.109375 L 16.28125 -6.296875 L 15.59375 -6.75 L 15.046875 -6.796875 L 14.484375 -5.5625 L 13.9375 -6.71875 L 13.4375 -6.71875 L 13.046875 -7.140625 L 12.796875 -6.828125 L 13.328125 -6.25 L 13.71875 -6.21875 L 13.71875 -6.1875 L 14.046875 -5.5625 L 14.390625 -4.984375 L 14.3125 -4.921875 L 14.359375 -4.90625 L 14.390625 -4.984375 L 14.40625 -4.875 L 14.484375 -4.84375 L 14.890625 -5.0625 L 15.28125 -5.953125 L 15.828125 -5.90625 L 16.015625 -5.796875 L 17.015625 -5.796875 L 16.890625 -6.171875 L 17.65625 -5.953125 L 17.46875 -5.640625 L 17.40625 -5.328125 L 17.390625 -5.5 L 17.28125 -5.328125 L 17.171875 -5 L 17.5 -4.296875 L 17.09375 -3.921875 L 16.90625 -4.1875 L 16.703125 -3.734375 L 16.65625 -3.65625 L 16.625 -3.3125 L 16.234375 -2.765625 L 16.4375 -2.65625 L 16.28125 -2.421875 L 16.125 -2.609375 L 16.09375 -2.5625 L 16.203125 -2.421875 L 16.046875 -2.390625 L 16.015625 -2.390625 L 16.09375 -2.296875 L 15.90625 -2.265625 L 15.328125 -1.65625 L 15.359375 -2.1875 L 15.3125 -2.15625 L 15.25 -1.65625 L 14.828125 -1.3125 L 13.9375 -0.765625 L 12.9375 -0.34375 L 11.90625 -0.03125 L 11.375 0.078125 L 11.109375 0.109375 L 11.0625 0.265625 L 10.296875 0.265625 L 10.296875 0.234375 L 9.40625 0.265625 L 8.40625 0.203125 L 8.375 0.234375 L 7.84375 0.1875 L 7.296875 0.109375 L 6.265625 -0.15625 L 5.265625 -0.53125 L 4.796875 -0.765625 L 4.328125 -1.046875 L 3.484375 -1.6875 L 3.484375 -1.8125 L 3.8125 -1.953125 L 3.71875 -2.03125 Z M 11.78125 -17.171875 L 11.828125 -16.8125 L 12.140625 -17.8125 L 12.859375 -17.359375 L 12.96875 -17.5 L 12.28125 -17.90625 L 11.984375 -17.8125 Z M 13.546875 -17.515625 L 13.59375 -17.546875 L 13.640625 -17.59375 L 13.515625 -17.578125 Z M 3.90625 -17.28125 L 4.34375 -17.578125 L 4.40625 -17.234375 L 4.078125 -17.359375 Z M 8.9375 -16.0625 L 9.265625 -15.671875 L 9.359375 -15.640625 L 9.609375 -16.15625 L 9.53125 -16.234375 L 9.640625 -16.234375 L 10.1875 -16.203125 L 10.640625 -15.625 L 10.78125 -15.59375 L 10.296875 -16.203125 L 11.5625 -16.28125 L 11.875 -15.828125 L 11.828125 -16.328125 L 11.5625 -16.390625 L 10.296875 -16.3125 L 9.640625 -16.328125 L 9.59375 -17.5 L 9.515625 -17.4375 L 9.53125 -16.546875 L 9.25 -15.96875 L 8.875 -16.40625 Z M 12.28125 -16.625 L 13.046875 -16.65625 L 13.046875 -16.734375 L 12.90625 -17.28125 L 12.875 -17.28125 Z M 6.40625 -17.09375 L 6.078125 -16.65625 L 6.140625 -16.625 L 6.453125 -17.078125 Z M 14.640625 -15.90625 L 15.125 -15.984375 L 15.25 -16.9375 L 14.359375 -16.78125 L 13.984375 -16.734375 L 13.78125 -16.046875 L 13.984375 -15.515625 L 14.171875 -15.46875 L 14.046875 -15.859375 Z M 6.828125 -15.125 L 7.921875 -15.28125 L 8.40625 -15.46875 L 8.140625 -14.96875 L 8.34375 -14.96875 L 8.71875 -15.640625 L 8.40625 -15.703125 L 7.921875 -15.515625 L 6.828125 -15.359375 L 6.765625 -15.546875 L 6.375 -15.546875 L 6.140625 -16.4375 L 6.03125 -16.46875 L 6.078125 -16.5625 L 6.078125 -16.625 L 5.984375 -16.484375 L 5.984375 -16.46875 L 5.953125 -16.46875 L 5.953125 -16.4375 L 6.265625 -15.359375 L 6.84375 -15.359375 L 6.53125 -14.75 L 6.59375 -14.671875 Z M 4.578125 -15.59375 L 4.578125 -15.546875 L 4.609375 -15.546875 L 4.953125 -16.359375 L 4.71875 -16.328125 L 4.484375 -15.75 L 4.578125 -15.5625 Z M 11.328125 -14.984375 L 11.4375 -14.859375 L 12.359375 -14.515625 L 12.375 -14.828125 L 11.828125 -15.046875 L 12.40625 -15.828125 L 12.359375 -15.890625 L 11.90625 -15.8125 L 11.90625 -15.78125 Z M 5.578125 -15.78125 L 5.53125 -15.8125 L 4.609375 -15.515625 L 4.640625 -15.46875 Z M 3.953125 -13.703125 L 3.796875 -13.71875 L 3.609375 -13.546875 L 3.65625 -13.484375 L 3.65625 -13.515625 L 3.6875 -13.359375 L 3.84375 -13.21875 L 4.296875 -13.328125 L 4.40625 -13.5625 L 4.1875 -13.859375 L 4.5 -13.78125 L 4.578125 -13.984375 L 4.328125 -14.09375 L 4.40625 -14.4375 L 4.109375 -14.71875 L 4.0625 -14.671875 L 3.71875 -14.71875 L 3.15625 -15.78125 L 3.140625 -15.734375 L 3.6875 -14.71875 L 4.03125 -14.671875 Z M 13.9375 -11.875 L 14.75 -11.71875 L 14.8125 -11.59375 L 15.015625 -11.671875 L 15.140625 -11.75 L 15.015625 -11.75 L 14.71875 -12.5625 L 14.75 -12.140625 L 13.96875 -12.984375 L 14.71875 -12.984375 L 14.71875 -12.59375 L 15.46875 -12.546875 L 15.59375 -12.78125 L 15.046875 -12.875 L 15.0625 -13.5625 L 15.671875 -12.90625 L 15.890625 -13.28125 L 15.90625 -13.28125 L 16.203125 -13.90625 L 15.125 -13.90625 L 14.703125 -14.859375 L 15.0625 -15.09375 L 14.859375 -15.125 L 14.515625 -14.90625 L 14.828125 -14.171875 L 14.40625 -13.4375 L 13.890625 -13.484375 L 13.96875 -13.21875 L 13.484375 -13.140625 L 13.140625 -12.515625 L 13.015625 -13.640625 L 12.140625 -13.46875 L 12.203125 -13.21875 L 13.015625 -13.375 L 13.140625 -12.296875 L 13.140625 -12.25 L 13.140625 -12.28125 L 13.046875 -11.859375 L 13.0625 -11.828125 L 13.9375 -11.953125 L 13.75 -11.703125 L 13.96875 -11.75 Z M 13.546875 -14.75 L 13.46875 -14.390625 L 13.59375 -14.3125 L 13.640625 -14.546875 Z M 4.765625 -14.640625 L 4.796875 -14.640625 L 4.765625 -14.75 L 4.65625 -14.390625 L 4.84375 -14.203125 L 4.875 -14.515625 Z M 1.84375 -14.703125 L 1.578125 -14.015625 L 1.3125 -13.203125 L 1.453125 -13.71875 Z M 7.53125 -14.203125 L 7.953125 -14.015625 L 7.515625 -14.640625 L 7.453125 -14.640625 Z M 7.140625 -13.890625 L 7.328125 -14.625 L 6.6875 -14.546875 Z M 5.578125 -13.78125 L 5.1875 -13.359375 L 5.15625 -13.28125 L 5.609375 -13.75 L 5.75 -14.625 L 5.71875 -14.625 Z M 10.4375 -14.59375 L 10.328125 -14.40625 L 10.296875 -13.71875 L 10.703125 -14.390625 Z M 8.140625 -5.984375 L 8.84375 -5 L 8.34375 -4.34375 L 8.015625 -5.5 L 7.984375 -5.5 L 8.015625 -5.34375 L 8.296875 -4.375 L 8.328125 -4.34375 L 8.296875 -4.296875 L 8.328125 -4.265625 L 8.328125 -4.296875 L 8.828125 -4.984375 L 9.953125 -4.984375 L 9.953125 -5.140625 L 10.0625 -5.5625 L 10.296875 -5.640625 L 10.78125 -6.53125 L 10.859375 -7.140625 L 10.984375 -7.328125 L 10.984375 -7.609375 L 11.015625 -8.1875 L 11.640625 -8.484375 L 11.640625 -8.59375 L 11.25 -8.4375 L 11.25 -10.171875 L 11.21875 -10.25 L 11.140625 -10.703125 L 10.90625 -10.828125 L 10.859375 -12.015625 L 10.75 -12.640625 L 10.75 -13.09375 L 10.90625 -13.171875 L 10.375 -13.515625 L 9.953125 -13.78125 L 9.859375 -13.828125 L 9.171875 -13.515625 L 8.828125 -13.75 L 8.140625 -14.0625 L 8.09375 -13.9375 L 8.484375 -13.78125 L 8.796875 -13.546875 L 8.09375 -12.5625 L 7.84375 -12.515625 L 7.09375 -12.21875 L 6.296875 -12.21875 L 6.328125 -12.171875 L 6.953125 -12.171875 L 6.40625 -11.875 L 6.421875 -11.796875 L 5.6875 -11.640625 L 6.1875 -12.0625 L 5.71875 -11.671875 L 5.25 -12.546875 L 5.109375 -13.171875 L 5.109375 -13.125 L 5.21875 -12.515625 L 5.6875 -11.640625 L 5.109375 -11.671875 L 4.609375 -10.875 L 4.578125 -10.875 L 4.453125 -10.21875 L 3.90625 -10.703125 L 3.84375 -10.671875 L 4.421875 -10.171875 L 4.453125 -10.1875 L 5.078125 -9.875 L 5.6875 -9.796875 L 5.1875 -9.140625 L 6.265625 -9.171875 L 6.640625 -8.609375 L 5.90625 -8.53125 L 4.984375 -8.609375 L 5 -8.59375 L 5.921875 -8.515625 L 6.671875 -8.59375 L 6.421875 -7.609375 L 5.5625 -7.640625 L 5.5 -7.75 L 4.875 -7.84375 L 4.90625 -7.75 L 5.453125 -7.640625 L 5.5 -7.1875 L 5.609375 -7.1875 L 5.6875 -7.03125 L 5.984375 -7.0625 L 5.921875 -7.484375 L 6.796875 -7.453125 L 6.984375 -8.1875 L 6.765625 -8.59375 L 7.59375 -8.34375 L 7.984375 -7.84375 L 7.921875 -7.828125 L 7.984375 -7.53125 L 8.25 -7.6875 L 8.328125 -6.5 L 8.265625 -6.53125 L 8.328125 -6.171875 L 8.21875 -6.59375 L 8.03125 -6.765625 L 8.015625 -6.71875 L 7.984375 -6.671875 L 7.984375 -6.6875 L 7.953125 -6.640625 Z M 5.40625 -13.828125 L 5.5625 -13.78125 L 5.453125 -13.90625 Z M 2.734375 -13.890625 L 2.890625 -13.640625 L 3.109375 -13.859375 Z M 3.1875 -12.59375 L 3.765625 -12.359375 L 3.734375 -12.484375 L 3.15625 -12.71875 L 3.65625 -13.484375 L 3.53125 -13.46875 L 3.21875 -13.125 L 2.8125 -13.28125 L 2.578125 -13.21875 L 2.609375 -13.28125 L 2.390625 -13.203125 L 2.609375 -13.125 Z M 11.828125 -11.59375 L 11.453125 -12.21875 L 11.625 -12.828125 L 11.59375 -12.828125 L 11.53125 -13.25 L 11.4375 -13.203125 L 11.203125 -12.296875 L 11.5625 -11.671875 L 11.859375 -11.0625 L 11.90625 -11.453125 Z M 4.265625 -13.015625 L 4.84375 -13.140625 L 4.828125 -13.203125 L 4.296875 -13.0625 Z M 11.859375 -12.59375 L 12.296875 -12.546875 L 12.25 -12.75 L 11.828125 -12.796875 Z M 16.59375 -12.515625 L 16.625 -12.453125 L 16.859375 -12.484375 L 16.671875 -12.671875 Z M 8.453125 -7.921875 L 8.0625 -8.4375 L 7.25 -8.671875 L 6.875 -9.21875 L 5.796875 -9.1875 L 6.296875 -9.859375 L 5.6875 -9.9375 L 5.0625 -10.25 L 5.21875 -10.984375 L 5.796875 -10.9375 L 6.265625 -11.703125 L 6.40625 -11.703125 L 6.453125 -11.828125 L 7.109375 -12.171875 L 7.875 -12.453125 L 8.109375 -12.546875 L 8.03125 -11.90625 L 8.015625 -11.296875 L 7.984375 -10.71875 L 8.5625 -10.796875 L 8.5625 -10.21875 L 8.53125 -9.609375 L 8.59375 -7.296875 Z M 2.84375 -11.28125 L 2.796875 -10.828125 L 2.796875 -10.796875 L 3.3125 -11.296875 L 3.3125 -11.328125 L 2.8125 -10.828125 L 2.875 -11.359375 L 2.03125 -11.375 L 2.0625 -12.28125 L 1.234375 -12.328125 L 2.03125 -12.28125 L 2 -11.40625 L 2.03125 -11.375 L 2 -11.375 L 1.8125 -11.40625 L 1.84375 -11.328125 L 1.96875 -11.328125 L 2 -11.359375 L 2 -11.296875 Z M 12.4375 -10.53125 L 12.828125 -10.109375 L 13.140625 -10.140625 L 12.4375 -10.90625 L 13.046875 -10.953125 L 12.859375 -11.359375 L 13.171875 -11.296875 L 13.0625 -11.59375 L 12.984375 -11.625 L 12.984375 -11.59375 L 12.984375 -11.625 L 12.203125 -11.75 L 12.171875 -11.359375 L 12.4375 -10.796875 L 12.046875 -10.03125 L 12.203125 -10.03125 Z M 16.5625 -11.203125 L 16.625 -11.40625 L 16.546875 -11.328125 L 16.546875 -11.296875 Z M 14.4375 -10.640625 L 15.046875 -10.5625 L 14.484375 -10.640625 L 14.859375 -11.09375 L 14.28125 -11.171875 L 14.28125 -11.109375 L 14.140625 -11.09375 L 14.484375 -10.453125 L 13.78125 -10.0625 L 13.796875 -10.015625 L 14.484375 -10.40625 L 14.71875 -10.09375 Z M 6.1875 -10.859375 L 6.1875 -10.875 Z M 16.328125 -10.4375 L 16.25 -10.453125 L 16.125 -10.171875 L 15.171875 -10.28125 L 15.328125 -9.71875 L 15.46875 -9.6875 L 15.4375 -9.328125 L 16.15625 -9.21875 L 16.203125 -9.375 L 16.546875 -9.296875 L 16.890625 -10.09375 L 16.984375 -10.359375 L 16.828125 -10.703125 L 17.046875 -10.53125 L 17.046875 -10.5625 L 16.78125 -10.75 L 16.890625 -10.484375 Z M 14.96875 -9.78125 L 15.140625 -9.75 L 15.171875 -10.28125 L 15.171875 -10.296875 L 14.859375 -9.90625 Z M 11.625 -9.859375 L 12.09375 -9.859375 L 12.09375 -9.875 L 12.015625 -9.984375 L 11.984375 -9.9375 L 11.625 -9.9375 Z M 3.484375 -9.859375 L 3.921875 -9.328125 L 3.953125 -9.375 L 3.5 -9.90625 L 3.453125 -9.875 Z M 3.453125 -9.875 Z M 3.421875 -9.875 L 3.3125 -9.5625 L 3.421875 -9.796875 L 3.453125 -9.875 Z M 11.875 -9.296875 L 11.875 -9.0625 L 12.546875 -9.0625 L 12.984375 -9.171875 L 13.171875 -9.609375 L 14.28125 -9.265625 L 14.25 -9.328125 L 13.171875 -9.671875 L 12.59375 -9.484375 L 12.75 -9.265625 Z M 3 -8.796875 L 3.234375 -9.328125 L 3.21875 -9.375 L 2.796875 -8.34375 L 3.578125 -8.71875 L 3.421875 -8.984375 Z M 4.765625 -8.984375 L 4.65625 -8.84375 L 4.90625 -8.671875 L 4.921875 -8.671875 L 4.765625 -9.0625 L 4 -9.328125 L 4.03125 -9.21875 Z M 17.46875 -9.21875 L 17.25 -9.171875 L 17.40625 -9.140625 Z M 13.203125 -8.21875 L 13.484375 -8.640625 L 12.96875 -8.515625 L 12.78125 -8.09375 L 13.171875 -8.171875 Z M 15.4375 -8.453125 L 15.546875 -8.296875 L 15.734375 -8.328125 L 15.9375 -8.328125 L 15.78125 -8.5625 Z M 4.15625 -8.296875 L 4.140625 -8.4375 L 3.90625 -7.921875 L 4.0625 -7.921875 L 4.375 -8.265625 L 4.234375 -8.375 Z M 4.578125 -8.0625 L 4.15625 -7.921875 L 4.71875 -7.953125 Z M 7.609375 -7.296875 L 7.921875 -7.484375 L 7.921875 -7.796875 L 7.484375 -7.53125 Z M 2.765625 -6.796875 L 2.8125 -6.90625 L 2.765625 -6.953125 L 2.734375 -6.84375 Z M 6.421875 -5.53125 L 5.71875 -5.484375 L 4.953125 -5.21875 L 4.84375 -4.984375 L 5.71875 -5.265625 L 6.421875 -5.328125 L 6.6875 -5.5625 L 6.640625 -5.765625 L 6.953125 -6.921875 L 6.5 -6.875 L 6.265625 -6.03125 Z M 11.28125 -6.90625 L 11.09375 -6.609375 L 11.21875 -6.609375 Z M 4.40625 -5.796875 L 5.15625 -5.875 L 5.265625 -6.140625 L 4.40625 -6.03125 L 4.296875 -5.40625 L 3.640625 -5.40625 L 3.609375 -5.453125 L 3.5 -5.34375 L 3.609375 -5.25 L 3.3125 -5.21875 L 2.921875 -4.875 L 3.15625 -4.765625 L 3.640625 -5.15625 L 4.296875 -5.15625 Z M 13.515625 -4.828125 L 13.703125 -5.40625 L 13.546875 -5.65625 L 13.375 -5.15625 L 12.75 -6.078125 L 12.40625 -6.109375 L 13.015625 -5.21875 L 13.28125 -5.15625 L 13.515625 -4.6875 L 13.5625 -4.71875 Z M 11.203125 -4 L 11.71875 -3.984375 L 12.015625 -4.421875 L 12.09375 -5.21875 L 12.015625 -5.25 L 11.859375 -5.921875 L 11.828125 -5.90625 L 11.453125 -5.75 L 11.4375 -5.421875 L 11.21875 -5.5 L 11.03125 -5.25 L 11.828125 -4.953125 Z M 16.203125 -4.484375 L 16.390625 -4.234375 L 16.625 -5.140625 L 16.59375 -5.1875 L 16.40625 -5.25 L 16.328125 -5.0625 L 16.15625 -5.078125 L 15.96875 -4.328125 L 16.125 -4.296875 Z M 15.515625 -5.15625 L 15.359375 -5.078125 L 15.625 -4.40625 L 15.890625 -4.34375 L 15.546875 -5.15625 Z M 5.15625 -4.578125 L 5.265625 -3.53125 L 5.265625 -3.6875 L 5.1875 -4.6875 L 5.15625 -4.6875 L 4.828125 -4.984375 L 4.828125 -4.828125 L 5.140625 -4.5625 Z M 7.515625 -3.734375 L 7.5625 -3.71875 L 8.015625 -4.5625 L 7.984375 -4.953125 L 7.515625 -4.03125 L 6.59375 -3.984375 L 6.5 -4.5625 L 6.453125 -4.5625 L 6.59375 -3.6875 Z M 6.03125 -3.71875 L 5.296875 -4.65625 L 6.03125 -3.71875 L 6.375 -4.5625 Z M 17.4375 -3.3125 L 17.515625 -3.921875 L 17.90625 -4.296875 Z M 3.8125 -4.1875 L 4.875 -4.15625 L 4.875 -4.234375 L 3.734375 -4.265625 Z M 6.640625 -2.03125 L 6.984375 -1.3125 L 7.03125 -1.3125 L 7 -1.234375 L 6.828125 -0.8125 L 6.453125 -1.15625 L 6.34375 -1.15625 L 6.375 -1.234375 L 5.375 -1.453125 L 5.328125 -1.34375 L 5.296875 -1.46875 L 5.1875 -1.5 L 5.265625 -1.6875 L 5.1875 -2.296875 L 5.078125 -2.0625 L 5.1875 -1.296875 L 4.640625 -1.125 L 5.328125 -1.34375 L 6.5 -1.078125 L 6.953125 -0.65625 L 7.171875 -1.15625 L 7.71875 -1.796875 L 7.609375 -1.796875 L 7.875 -3.078125 L 7.875 -2.984375 L 8.09375 -3.3125 L 8.765625 -2.921875 L 9.03125 -3.296875 L 8.875 -3.078125 L 8.265625 -3.421875 L 8.09375 -3.421875 L 8.296875 -4.234375 L 8.296875 -4.265625 L 8.09375 -3.484375 L 8.03125 -3.5 L 7.875 -3.265625 L 7.609375 -1.96875 L 7.484375 -1.96875 L 7.03125 -1.46875 L 6.75 -2.078125 L 6.671875 -2.109375 L 6.375 -1.234375 Z M 13.09375 -2.265625 L 13.96875 -2.921875 L 14.484375 -2.953125 L 14.25 -2.375 L 14.21875 -2.21875 L 14.25 -2.140625 L 14.203125 -2.140625 L 14.046875 -1.453125 L 14.0625 -1.375 L 14.015625 -1.34375 L 13.96875 -1.1875 L 13.9375 -1.234375 L 13.90625 -1.109375 L 14.625 -1.375 L 14.25 -2.140625 L 14.671875 -2.1875 L 14.4375 -2.296875 L 14.671875 -2.875 L 14.9375 -2.953125 L 14.8125 -3.078125 L 15.3125 -3.0625 L 15.390625 -3.078125 L 15.359375 -3.078125 L 14.90625 -3.640625 L 15.96875 -3.921875 L 15.75 -4.109375 L 15.8125 -4 L 14.96875 -4.21875 L 15.0625 -4.109375 L 14.8125 -4.03125 L 14.703125 -3.796875 L 15.015625 -3.390625 L 14.3125 -3.1875 L 14.0625 -3.8125 L 14.015625 -3.8125 L 14.046875 -3.84375 L 14.046875 -3.875 L 13.9375 -3.65625 L 13.125 -3.6875 L 13.59375 -3.65625 L 13.59375 -3.640625 L 13.890625 -2.875 L 13.71875 -2.875 L 13.71875 -2.84375 L 12.90625 -2.21875 L 13.0625 -2 L 13.28125 -2.03125 Z M 4.109375 -2.1875 L 4.078125 -2.1875 L 4.109375 -2.078125 L 4.234375 -2.140625 L 3.921875 -3.078125 L 3.796875 -3.640625 L 4.140625 -3.578125 L 4 -3.71875 L 3.65625 -3.765625 L 3.65625 -3.90625 L 3.03125 -3.140625 L 3.109375 -3.03125 L 3.65625 -3.6875 L 3.796875 -3.140625 Z M 12.046875 -2.609375 L 12.359375 -1.6875 L 12.40625 -1.609375 L 12.5625 -2.140625 L 12.21875 -2.078125 L 12.515625 -3.0625 L 12.28125 -3.453125 Z M 9.25 -2.796875 L 10.109375 -2.875 L 9.796875 -1.96875 L 9.828125 -2 L 10.140625 -2.921875 L 10.71875 -2.140625 L 11.109375 -2.34375 L 11.78125 -1.5 L 11.984375 -1.734375 L 11.109375 -2.8125 L 10.71875 -2.609375 L 10.140625 -3.390625 L 9.640625 -3.34375 L 9.21875 -2.8125 L 9.265625 -2.640625 L 9.1875 -2.109375 L 9.265625 -2.609375 L 9.671875 -2 L 9.78125 -1.96875 Z M 16.25 -3.03125 L 16.171875 -2.8125 L 16.203125 -2.796875 L 16.4375 -3.296875 Z M 15.46875 -3.0625 L 15.46875 -3.078125 L 15.390625 -3.078125 L 15.4375 -3.0625 Z M 15.9375 -2.734375 L 16.09375 -2.5625 L 16.125 -2.609375 L 16.0625 -2.6875 Z M 14.203125 -2.296875 L 14.140625 -2.109375 L 14.203125 -2.140625 L 14.21875 -2.21875 Z M 13.546875 -1.421875 L 13.09375 -1.453125 L 13.015625 -1.125 L 13.359375 -1.109375 L 13.890625 -1.296875 L 13.28125 -2.03125 L 13.21875 -1.8125 Z M 9.453125 -1.453125 L 10.015625 -1.15625 L 10.453125 -1.078125 L 11.453125 -1.1875 L 11.484375 -1.21875 L 10.703125 -1.125 L 10.25 -1.21875 L 9.484375 -1.578125 L 9.484375 -1.546875 L 9.40625 -1.53125 L 9.4375 -1.453125 Z M 9.375 -1.46875 L 9.40625 -1.53125 L 9.328125 -1.5 Z M 13.984375 -1.53125 L 13.96875 -1.3125 L 14.015625 -1.34375 L 14.046875 -1.453125 Z M 12.671875 -1.125 L 12.9375 -1.125 L 12.828125 -1.453125 L 12.484375 -1.46875 Z M 8.484375 -1.109375 L 8.375 -0.96875 L 9.21875 -1.34375 L 9.21875 -1.453125 Z M 10.953125 -0.375 L 10.40625 -0.421875 L 10.40625 -0.296875 L 10.984375 -0.234375 L 11.015625 -0.375 L 12.0625 -0.734375 L 12.546875 -0.53125 L 12.171875 -1.15625 L 12.515625 -1.125 L 12.25 -1.265625 L 11.59375 -1.03125 Z M 7.765625 -0.453125 L 7.921875 -1.03125 L 7.765625 -0.421875 L 7.984375 -0.5 L 7.984375 -0.53125 L 7.953125 -0.5 L 7.953125 -0.53125 Z M 8.09375 -0.625 L 8.328125 -0.921875 L 8.296875 -0.921875 L 8.09375 -0.6875 Z M 9.53125 -0.3125 L 9.59375 0.109375 L 10.109375 0.109375 L 10.09375 -0.078125 L 9.671875 -0.3125 L 10.296875 -0.453125 L 10.0625 -0.46875 L 9.53125 -0.375 Z M 9.53125 -0.3125 "/></g></g></g><g fill="#10182D" fill-opacity="1"><g transform="translate(159.087085, 100.994419)"><g><path d="M 1.765625 -5.25 L 2.65625 -5.25 L 2.984375 -4.796875 L 3.078125 -5.0625 L 2.8125 -5.453125 L 1.921875 -5.453125 L 1.265625 -5.578125 L 0.796875 -5.609375 L 0.609375 -5.796875 L 1.1875 -6.375 L 3.609375 -6.375 L 4.40625 -6.328125 L 5.0625 -6.375 L 5.5 -6.21875 L 6.5 -6.375 L 6.5 -6.296875 L 6.875 -5.484375 L 6.90625 -5.578125 L 6.921875 -5.640625 L 6.90625 -5.65625 L 6.5 -6.5 L 7.03125 -6.484375 L 6.90625 -5.65625 L 6.921875 -5.65625 L 7.03125 -6.375 L 7.453125 -6.03125 L 7.53125 -5.5 L 7.5625 -5.5 L 7.453125 -6.1875 L 8.453125 -5.34375 L 8.765625 -4.828125 L 8.0625 -5.0625 L 7.21875 -5.0625 L 6.984375 -5.53125 L 6.921875 -5.53125 L 7.21875 -4.953125 L 6.828125 -4.609375 L 7.21875 -4.953125 L 7.109375 -4.296875 L 7.21875 -4.296875 L 7.265625 -4.65625 L 8.109375 -4.65625 L 8.828125 -4.421875 L 9.140625 -4.875 L 10.25 -5.296875 L 10.25 -5.328125 L 10.328125 -5.328125 L 10.296875 -5.296875 L 10.71875 -5.109375 L 10.875 -4.921875 L 11.53125 -4.875 L 11.640625 -5.453125 L 10.9375 -5.484375 L 10.484375 -5.6875 L 10.71875 -6.34375 L 10.640625 -6.296875 L 10.75 -6.421875 L 10.875 -6.765625 L 10.859375 -6.90625 L 10.5625 -7.09375 L 10.484375 -7.59375 L 9.6875 -7.953125 L 9.21875 -8.328125 L 9.1875 -8.328125 L 9.03125 -8.453125 L 9.171875 -8.640625 L 9.140625 -8.71875 L 9.1875 -8.671875 L 9.515625 -9.09375 L 10.328125 -8.90625 L 10.453125 -8.828125 L 11.015625 -9.09375 L 10.984375 -9.171875 L 11.109375 -9.9375 L 10.328125 -9.5625 L 9.53125 -9.75 L 9.640625 -9.4375 L 9.171875 -8.796875 L 8.6875 -8.828125 L 8.90625 -9.453125 L 8.1875 -9.40625 L 8.515625 -10.515625 L 7.875 -10.09375 L 7.1875 -11.109375 L 7.140625 -10.71875 L 7.75 -9.828125 L 7.40625 -9.484375 L 6.984375 -10.21875 L 7 -10.484375 L 6.109375 -10.53125 L 5.484375 -10.453125 L 5.03125 -10.9375 L 4.90625 -10.609375 L 4.5 -11.5625 L 4.453125 -10.796875 L 4.53125 -10.609375 L 3.984375 -10.75 L 4 -11.359375 L 3.90625 -11.515625 L 3.65625 -11.453125 L 3.90625 -12.171875 L 3.15625 -12.28125 L 2.875 -11.453125 L 2.578125 -12.25 L 3.03125 -12.9375 L 3.390625 -13.671875 L 3.3125 -13.703125 L 2.921875 -12.9375 L 2.46875 -12.25 L 2.765625 -11.453125 L 2.578125 -11.4375 L 2.640625 -11.359375 L 2.453125 -11.03125 L 2.765625 -11.09375 L 3.609375 -11.28125 L 4.234375 -10.375 L 4.796875 -10.25 L 4.6875 -10.015625 L 5.0625 -10.171875 L 5.25 -10.609375 L 5.6875 -10.109375 L 5.34375 -9.984375 L 5.375 -9.9375 L 5.984375 -9.984375 L 6.328125 -9.328125 L 6.421875 -9.359375 L 5.984375 -10.21875 L 6.984375 -10.171875 L 7.40625 -9.4375 L 7.75 -9.78125 L 8.375 -10.1875 L 8.0625 -9.09375 L 8.765625 -9.140625 L 8.5625 -8.515625 L 8.171875 -8.40625 L 8.03125 -8.25 L 7.40625 -7.875 L 7.296875 -8.015625 L 7.140625 -7.796875 L 6.921875 -8.140625 L 6.21875 -8.453125 L 5.765625 -8.9375 L 5.65625 -8.90625 L 6.21875 -8.328125 L 6.921875 -8.015625 L 7.140625 -7.671875 L 6.421875 -7.640625 L 5.6875 -7.421875 L 5.296875 -7.328125 L 4.921875 -7.328125 L 4.90625 -7.296875 L 4.90625 -7.1875 L 4.84375 -7.265625 L 4.796875 -7.21875 L 4.03125 -7.25 L 4.765625 -7.34375 L 4.484375 -7.75 L 4.03125 -7.71875 L 4 -8.1875 L 3.984375 -8.1875 L 3.796875 -7.796875 L 4.140625 -7.53125 L 3.234375 -7.25 L 2.5625 -7.53125 L 2.140625 -7.828125 L 2.890625 -8.21875 L 3.15625 -8.171875 L 2.984375 -8.296875 L 3.1875 -8.6875 L 3.03125 -8.796875 L 3.1875 -9.1875 L 2.609375 -9.109375 L 2.578125 -9.109375 L 2.953125 -8.296875 L 2.5 -8.40625 L 2.578125 -9.109375 L 2.21875 -9.03125 L 2.21875 -8.9375 L 2.421875 -8.953125 L 2.375 -8.515625 L 2.46875 -8.40625 L 2.34375 -8.328125 L 2.34375 -8.25 L 2.296875 -8.296875 L 1.71875 -8.015625 L 1.8125 -8.71875 L 1.71875 -8.796875 L 1.84375 -8.828125 L 1.84375 -8.953125 L 1.953125 -8.84375 L 2.1875 -8.90625 L 2.21875 -9.03125 L 1.890625 -8.953125 L 1.875 -9.015625 L 1.953125 -9.6875 L 1.6875 -9.640625 L 1.796875 -10.640625 L 2 -10.984375 L 2.453125 -11.03125 L 2.5 -11.4375 L 2.109375 -11.359375 L 2.109375 -11.296875 L 2.0625 -11.359375 L 2 -11.359375 L 2 -11.4375 L 1.96875 -11.484375 L 1.96875 -11.59375 L 1.921875 -12.015625 L 2.109375 -13.546875 L 2.3125 -13.09375 L 2.1875 -13.359375 L 2.421875 -15.359375 L 2.453125 -15.171875 L 3.078125 -15.484375 L 3.109375 -15.625 L 2.453125 -15.28125 L 2.453125 -15.25 L 2.453125 -15.28125 L 2.53125 -16.46875 L 2.640625 -17.3125 L 2.640625 -17.625 L 2.796875 -17.90625 L 2.765625 -17.734375 L 2.984375 -18.15625 L 3.65625 -18.390625 L 5.1875 -18.390625 L 5.453125 -17.75 L 5.53125 -17.859375 L 5.1875 -18.671875 L 9.296875 -18.671875 L 9.140625 -18.09375 L 8.25 -18.171875 L 8.265625 -17.859375 L 9.109375 -17.8125 L 9.140625 -17.890625 L 9.21875 -17.96875 L 9.328125 -18.390625 L 9.6875 -18.390625 L 9.796875 -18.46875 L 9.828125 -18.390625 L 9.875 -18.15625 L 9.953125 -18.125 L 9.90625 -18.5 L 11.4375 -18.5 L 11.453125 -18.4375 L 12.796875 -18.4375 L 13.171875 -18.15625 L 13.5625 -18.15625 L 13.640625 -18.234375 L 13.78125 -18.9375 L 14.59375 -18.75 L 14.40625 -19.3125 L 14.9375 -19.3125 L 15.9375 -19.09375 L 16.15625 -18.59375 L 16.15625 -16.25 L 15.8125 -16.328125 L 15.78125 -16.328125 L 15.734375 -16.0625 L 14.984375 -16.390625 L 14.859375 -15.390625 L 14.625 -15.671875 L 14.4375 -15.234375 L 14.40625 -15.9375 L 14.171875 -16.25 L 14.21875 -15.59375 L 13.59375 -15.640625 L 13.625 -15.28125 L 13.40625 -15.09375 L 13.640625 -14.8125 L 14.625 -14.71875 L 14.5625 -15.390625 L 15.25 -14.515625 L 15.390625 -15.640625 L 16.203125 -15.46875 L 16.546875 -15.40625 L 16.546875 -14.015625 L 16.328125 -13.515625 L 15.828125 -13.296875 L 15.28125 -13.359375 L 14.3125 -13.296875 L 13.78125 -13.296875 L 14.171875 -13.890625 L 13.625 -14.625 L 13.046875 -14.546875 L 12.875 -13.796875 L 12.25 -13.828125 L 12.28125 -13.78125 L 11.4375 -13.90625 L 11.40625 -13.90625 L 11.328125 -13.859375 L 11.09375 -13.859375 L 11.21875 -13.296875 L 11.9375 -13.78125 L 12.671875 -13.75 L 13.640625 -13.890625 L 13.28125 -13.296875 L 10.703125 -13.296875 L 10.953125 -13.859375 L 10.828125 -13.859375 L 10.75 -14.140625 L 10.484375 -14.40625 L 10.296875 -14.046875 L 9.4375 -14.046875 L 9.515625 -13.703125 L 8.40625 -13.703125 L 7.765625 -13.984375 L 7.21875 -13.828125 L 7.140625 -13.59375 L 7.453125 -13.296875 L 6.90625 -12.28125 L 6.5 -11.453125 L 6.421875 -11.375 L 6.421875 -11.328125 L 6.921875 -11.796875 L 7.328125 -12.625 L 8.21875 -12.09375 L 8.765625 -12.359375 L 9.609375 -11.984375 L 9.4375 -11.71875 L 9.90625 -11.71875 L 9.71875 -12.28125 L 10.484375 -12.296875 L 10.9375 -12.328125 L 11.109375 -11.953125 L 11.40625 -11.953125 L 11.25 -12.328125 L 12.375 -12.125 L 12.515625 -11.375 L 12.625 -11.375 L 13.015625 -12.09375 L 13.359375 -11.984375 L 13.328125 -12.125 L 13.890625 -12.09375 L 13.71875 -11.859375 L 13.859375 -11.796875 L 14.015625 -11.859375 L 14.015625 -11.75 L 14.046875 -11.75 L 14.015625 -11.75 L 14.046875 -11.625 L 14.25 -11.515625 L 14.4375 -11.09375 L 14.890625 -10.71875 L 14.484375 -11.625 L 15.390625 -11.03125 L 15.8125 -10.703125 L 16.515625 -9.90625 L 15.984375 -9.828125 L 15.984375 -9.6875 L 16.515625 -9.78125 L 17.09375 -8.84375 L 15.984375 -9.015625 L 15.984375 -9.140625 L 15.40625 -9.0625 L 15.390625 -8.9375 L 15.5625 -8.953125 L 15.5625 -9.015625 L 15.734375 -8.984375 L 15.890625 -9.015625 L 15.859375 -8.984375 L 16.671875 -8.84375 L 16.90625 -8.375 L 17.078125 -7.875 L 16.78125 -7.484375 L 16.75 -6.6875 L 16.984375 -6.6875 L 17.546875 -6.265625 L 16.90625 -6.1875 L 17.3125 -5.40625 L 17.625 -5.40625 L 17.859375 -6.265625 L 17.75 -5.140625 L 17.78125 -5.109375 L 17.65625 -4.578125 L 17.546875 -4.5625 L 17.203125 -3.65625 L 17.40625 -3.3125 L 16.5625 -3.609375 L 16.5625 -3.578125 L 16.15625 -2.875 L 16.46875 -2.734375 L 16.671875 -3.03125 L 16.734375 -3.03125 L 16.46875 -2.71875 L 16.625 -2.65625 L 16.328125 -2.234375 L 16.203125 -2.1875 L 16.234375 -2.140625 L 15.5625 -1.921875 L 15.546875 -1.84375 L 15.125 -1.5 L 14.21875 -0.890625 L 13.25 -0.421875 L 13.296875 -0.546875 L 12.328125 -0.203125 L 11.28125 0 L 10.71875 0.078125 L 10.59375 -0.03125 L 10.21875 0.078125 L 9.671875 0.078125 L 9.859375 -0.421875 L 9.453125 -0.84375 L 9.5625 -1.1875 L 9.484375 -1.125 L 9.40625 -2.140625 L 10.171875 -1.8125 L 10.296875 -1.953125 L 9.5625 -2.234375 L 9.5625 -2.140625 L 9.21875 -2.921875 L 9.25 -2.890625 L 8.828125 -3.453125 L 9.171875 -3.765625 L 8.796875 -3.765625 L 8.03125 -3.0625 L 8.0625 -3 L 9.140625 -2.921875 L 9.21875 -1.921875 L 9.09375 -1.5 L 8.609375 -1.8125 L 8.171875 -1.234375 L 7.609375 -2.265625 L 7.21875 -1.46875 L 7.1875 -1.890625 L 6.71875 -1.15625 L 6.328125 -1.078125 L 6.296875 -1.03125 L 6.34375 -0.3125 L 5.484375 -0.53125 L 5.609375 -0.71875 L 5.375 -0.921875 L 5.1875 -0.96875 L 4.84375 -1.109375 L 3.84375 -1.21875 L 4 -1.46875 L 3.234375 -1.875 L 2.796875 -2.1875 L 2.375 -2.53125 L 2.1875 -2.734375 L 2.1875 -1.875 L 1.84375 -2.15625 L 1.21875 -3.03125 L 0.734375 -4 L 0.609375 -4.5 L 0.625 -4.5 L 0.5 -5.53125 L 0.6875 -5.34375 L 1.125 -5.328125 L 1.109375 -5.375 Z M 14.015625 -17.3125 L 14.671875 -16.984375 L 14.890625 -17.09375 L 15.0625 -18.078125 L 14.671875 -18.078125 L 14.71875 -17.890625 L 14.171875 -18.015625 L 13.640625 -17.78125 L 13.5625 -17.359375 L 13.90625 -17.015625 Z M 12.5625 -18 L 11.828125 -17.671875 L 11.828125 -17.65625 L 12.546875 -17.96875 Z M 2.796875 -17.78125 L 2.734375 -17.703125 L 2.640625 -17.125 L 2.65625 -17.125 Z M 10.59375 -15.546875 L 9.640625 -15.59375 L 9.875 -15.46875 L 10.296875 -15.4375 L 10.171875 -15.25 L 10.453125 -14.96875 L 10.796875 -15.4375 L 10.25 -16.40625 L 11.296875 -16.09375 L 10.71875 -16.96875 L 11.375 -16.828125 L 11.359375 -16.859375 L 10.609375 -17.015625 L 11.140625 -16.234375 L 10.09375 -16.546875 L 10.515625 -17.046875 L 9.75 -17.234375 L 9.953125 -17.59375 L 9.9375 -17.671875 L 9.671875 -17.203125 L 8.953125 -16.890625 L 8.953125 -16.78125 L 9.671875 -17.125 L 9.984375 -16.4375 L 10.03125 -16.515625 Z M 6.6875 -17.4375 L 6.796875 -17.203125 L 7.109375 -16.96875 L 7.109375 -17.09375 L 6.6875 -17.4375 L 5.6875 -17.515625 L 5.75 -17.203125 L 6.421875 -17.15625 Z M 8.375 -16.125 L 8.40625 -15.640625 L 8.6875 -15.9375 L 8.671875 -16.0625 L 8.328125 -16.984375 L 8.296875 -17.234375 L 8.109375 -16.859375 Z M 2.609375 -17.046875 L 2.609375 -16.859375 L 2.640625 -16.96875 Z M 2.609375 -16.8125 L 2.71875 -16.15625 L 2.71875 -16.125 L 2.71875 -16.15625 L 3.34375 -16.9375 L 3.109375 -16.90625 L 2.71875 -16.40625 L 2.640625 -16.859375 L 2.609375 -16.859375 Z M 5.640625 -16.3125 L 5.609375 -16.25 L 6.03125 -15.390625 L 6.1875 -15.46875 L 6.90625 -15.734375 L 7.5625 -16.171875 L 7.59375 -16.234375 L 7.1875 -15.96875 L 6.328125 -15.625 L 5.984375 -16.328125 L 5.875 -16.234375 L 5.828125 -16.546875 L 5.21875 -16.515625 L 4.90625 -16.890625 L 4.765625 -16.75 L 5.15625 -16.28125 L 5.578125 -16.3125 Z M 12.625 -16.171875 L 13.5625 -16.171875 L 13.828125 -16.8125 L 13.484375 -16.59375 L 12.546875 -16.59375 L 12.328125 -16.859375 L 12.09375 -16.859375 Z M 2.421875 -15.828125 L 2.53125 -16.828125 L 2.453125 -15.640625 Z M 9.171875 -15.484375 L 9.53125 -15.46875 L 9.515625 -15.59375 L 9.453125 -15.59375 L 9.484375 -15.640625 L 9.484375 -15.671875 L 9.515625 -15.671875 L 9.9375 -16.328125 L 9.671875 -16.3125 Z M 4.234375 -13.984375 L 4.453125 -13.203125 L 5.03125 -13.703125 L 4.953125 -13.984375 L 5.296875 -14.640625 L 5.640625 -15.09375 L 5.1875 -15.46875 L 5.21875 -15.546875 L 5.03125 -16.171875 L 4.953125 -15.78125 L 5.0625 -15.515625 L 5.0625 -15.46875 L 5 -15.4375 L 4.953125 -15.359375 L 5.0625 -15.203125 L 4.90625 -15.28125 L 4.875 -15.25 L 4.875 -15.28125 L 4.578125 -14.90625 L 4.234375 -14.25 L 3.734375 -14.671875 L 3.6875 -14.4375 L 3.453125 -14.484375 L 3.984375 -13.984375 L 3.34375 -13.859375 L 3.34375 -13.828125 L 3.375 -13.828125 L 3.375 -13.796875 L 3.421875 -13.75 L 3.484375 -13.828125 Z M 12.046875 -15.5625 L 11.40625 -15.515625 L 11.328125 -15.46875 L 12.015625 -15.515625 Z M 7.5625 -14.9375 L 7.21875 -14.28125 L 7.21875 -14.21875 L 7.59375 -14.9375 Z M 9.1875 -14.9375 L 8.171875 -14.75 Z M 9.71875 -14.640625 L 9.25 -14.90625 L 9.359375 -14.4375 L 9.78125 -14.4375 Z M 5.84375 -13.796875 L 5.15625 -13.203125 L 5.921875 -12.984375 L 5.984375 -13.171875 L 5.828125 -13.21875 L 6.1875 -13.90625 Z M 8.03125 -13.828125 L 8.765625 -13.140625 L 7.75 -13.140625 L 7.21875 -13.59375 Z M 5.109375 -13.21875 L 5.15625 -13.203125 L 5.140625 -13.28125 Z M 9.828125 -13.0625 L 10.0625 -12.4375 L 9.484375 -12.4375 L 8.640625 -12.796875 Z M 5.140625 -12.296875 L 4.34375 -12.21875 L 4.6875 -12.171875 L 5 -12.203125 Z M 11.328125 -11.484375 L 11.21875 -11.484375 L 11.203125 -11.4375 L 11.59375 -11.40625 L 11.640625 -11.484375 L 11.4375 -11.90625 L 11.28125 -11.59375 Z M 5.609375 -10.953125 L 5.5625 -11.703125 L 5.40625 -11.71875 L 5.03125 -10.953125 Z M 9.140625 -11.328125 L 9.359375 -11.21875 L 9.40625 -11.328125 L 9.40625 -11.703125 Z M 9.78125 -11.375 L 10.328125 -11.296875 L 10.25 -11.59375 L 9.9375 -11.640625 Z M 13.484375 -10.1875 L 14.125 -9.375 L 13.96875 -9.09375 L 13.984375 -9.0625 L 14.171875 -8.25 L 14.140625 -8.171875 L 14.984375 -8.171875 L 15.046875 -7.90625 L 15.234375 -8.109375 L 15.203125 -8.1875 L 15.28125 -8.1875 L 15.3125 -8.25 L 14.9375 -8.1875 L 14.984375 -8.328125 L 14.171875 -8.328125 L 14.8125 -9.515625 L 14.171875 -10.328125 L 13.59375 -10.09375 L 13.71875 -11.015625 L 13.5625 -11.53125 L 13.46875 -11.375 L 13.4375 -11.53125 L 13.328125 -11.515625 L 13.5625 -10.875 L 13.46875 -10.1875 Z M 12.90625 -10.703125 L 13.296875 -11.515625 L 13.25 -11.515625 L 12.875 -10.71875 Z M 10.484375 -11.0625 L 10.640625 -11.09375 L 10.71875 -11.203125 L 10.4375 -11.140625 Z M 11.859375 -10.71875 L 12.453125 -9.859375 L 12.0625 -9.453125 L 12.140625 -9.265625 L 12.75 -9.875 L 12.625 -9.859375 L 12.671875 -10.03125 L 12.25 -10.671875 L 12.75 -10.59375 L 12.71875 -10.609375 L 12.125 -10.71875 L 11.671875 -10.75 L 11.625 -10.640625 L 11.71875 -10.359375 Z M 12.859375 -10.59375 L 12.859375 -10.609375 L 12.796875 -10.609375 L 12.796875 -10.5625 L 12.859375 -10.5625 Z M 2.21875 -10.21875 L 2.1875 -10.03125 L 2.453125 -10.09375 L 2.453125 -10.21875 Z M 4.984375 -8.609375 L 5 -8.140625 L 4.953125 -7.875 L 5 -7.828125 L 4.953125 -7.796875 L 4.90625 -7.40625 L 5 -7.453125 L 5.109375 -8.40625 L 5.078125 -8.875 L 5.5625 -8.984375 L 5.5 -9.21875 L 5.03125 -9.109375 L 4.609375 -9.828125 L 4.484375 -9.453125 Z M 3.421875 -9.21875 L 3.421875 -9.25 Z M 12.875 -7.640625 L 13.125 -6.953125 L 13.140625 -6.921875 L 12.90625 -7.671875 L 13.625 -7.484375 L 13.640625 -7.5625 L 13.0625 -7.71875 L 12.125 -7.640625 L 12.59375 -8.25 L 13.09375 -9.140625 L 12.171875 -9.25 L 12.21875 -9.171875 L 12.859375 -9.09375 L 12.359375 -8.1875 L 12.484375 -8.1875 L 12.046875 -7.609375 L 12.703125 -7.671875 L 12.296875 -7 L 12.515625 -6.984375 Z M 11.28125 -7.828125 L 11.859375 -7.59375 L 12.015625 -7.609375 L 11.640625 -8.265625 L 11.859375 -8.25 L 11.28125 -8.484375 L 11.09375 -8.9375 L 11.015625 -8.484375 Z M 11.515625 -8.9375 L 11.875 -8.25 L 12.328125 -8.21875 L 12.015625 -8.875 Z M 15.3125 -8.59375 L 15.390625 -8.4375 L 15.46875 -8.640625 L 15.359375 -8.796875 Z M 8.03125 -7.515625 L 8.5625 -8.1875 L 9.03125 -8.171875 L 9.09375 -7.765625 Z M 18.125 -7.875 L 18.328125 -6.796875 L 18.359375 -6.265625 L 17.8125 -6.6875 Z M 17.203125 -7.484375 L 17.515625 -7.875 L 17.171875 -6.6875 Z M 12.90625 -5.65625 L 12.375 -5.078125 L 13.046875 -5.03125 L 13.0625 -5.078125 L 12.90625 -5.078125 L 13.09375 -5.296875 L 13.140625 -5.984375 L 13.28125 -6.5625 L 13.171875 -6.84375 L 13.171875 -6.796875 L 13.25 -6.53125 L 13.125 -6.53125 L 13.0625 -6.34375 L 11.875 -6.484375 L 11.875 -6.71875 L 11.859375 -6.75 L 11.640625 -6.484375 L 11.875 -6.59375 L 11.671875 -5.640625 L 11.703125 -5.609375 L 11.71875 -5.796875 Z M 6.5 -6.640625 L 6.5 -6.71875 L 7.03125 -6.609375 Z M 15.96875 -6.71875 L 15.78125 -5.921875 L 15.96875 -5.765625 L 16.203125 -6.71875 Z M 17.859375 -6.1875 L 18.5 -6.265625 L 18.25 -5.40625 Z M 13.640625 -6.109375 L 14.328125 -5.921875 Z M 8.796875 -5.71875 L 8.484375 -5.265625 L 8.171875 -5.796875 Z M 3.375 -5.1875 L 3.90625 -5.03125 L 3.71875 -5.265625 L 3.484375 -5.34375 Z M 4.578125 -3.65625 L 4.6875 -3.640625 L 4.90625 -4.1875 L 5.078125 -3.5 L 5.109375 -3.5 L 4.90625 -4.265625 L 5.296875 -4.15625 L 5.421875 -4.5625 L 4.90625 -4.71875 L 5.5 -5.21875 L 4.90625 -5.328125 L 4.6875 -5.265625 L 4.375 -4.796875 L 4.53125 -4.5625 L 4.90625 -4.65625 L 4.578125 -3.84375 L 4.5 -4 L 4.421875 -3.65625 L 4.578125 -3.375 L 4.65625 -3.53125 Z M 0.65625 -4.5 L 0.84375 -4.5 L 1.234375 -5.15625 L 1.15625 -5.296875 Z M 10.328125 -4.640625 L 10.28125 -5.1875 L 10.25 -5.15625 L 10.296875 -4.640625 Z M 12.171875 -4.84375 L 12.28125 -4.71875 L 12.296875 -5 Z M 11.53125 -2.65625 L 11.4375 -2.65625 L 11.109375 -2.421875 L 10.4375 -1.578125 L 10.875 -1.453125 L 11.53125 -2.265625 L 11.453125 -2.296875 L 11.5625 -2.390625 L 11.484375 -2.65625 L 11.796875 -2.5625 L 11.875 -2.609375 L 11.859375 -3.875 L 12.796875 -3.640625 L 13.296875 -2.640625 L 13.296875 -2.609375 L 13.484375 -2.609375 L 13.59375 -2.734375 L 13.203125 -3.65625 L 13.09375 -3.640625 L 13.046875 -3.84375 L 12.75 -4.265625 L 12.453125 -4.375 L 12.375 -4.296875 L 12.515625 -3.796875 L 11.90625 -3.953125 L 11.796875 -3.875 L 11.78125 -3.984375 L 11.5625 -4.03125 L 11.75 -4.15625 L 11.75 -4.1875 L 11.796875 -4.40625 L 11.625 -4.609375 L 11.4375 -4.03125 L 11.296875 -4.21875 L 11.25 -4.234375 L 11.28125 -3.03125 L 11.453125 -2.765625 L 11.53125 -2.734375 L 11.484375 -2.71875 Z M 5.875 -4.265625 L 6.0625 -4.265625 L 5.875 -4.5 L 5.578125 -4.53125 L 5.984375 -4.0625 L 6 -4.078125 Z M 14.625 -4.484375 L 14.515625 -4.1875 L 14.890625 -4.15625 L 15.125 -4.484375 L 14.71875 -4.375 L 14.78125 -4.5 Z M 13.375 -4.265625 L 13.328125 -4.375 L 13.28125 -4.296875 Z M 14.40625 -3.796875 L 14.546875 -3.8125 L 14.4375 -3.984375 L 14.390625 -3.84375 Z M 5.25 -3.484375 L 5.84375 -3.453125 L 5.921875 -3.8125 L 5.375 -3.8125 Z M 7.90625 -3.53125 L 7.640625 -3.5625 L 7.90625 -3.21875 Z M 4.796875 -3.03125 L 4.609375 -2.234375 L 4.453125 -2.421875 L 4.140625 -1.890625 L 4.765625 -1.921875 L 4.5 -1.53125 L 4.765625 -1.296875 L 5.5 -1.21875 L 5.53125 -1.125 L 5.90625 -1.125 L 5.953125 -1.1875 L 6.0625 -1.265625 L 6 -1.796875 L 5.453125 -1.8125 L 5.5 -2.265625 L 5.15625 -2.234375 L 5.578125 -2.921875 L 5.578125 -2.984375 L 5.578125 -2.953125 L 5.609375 -3 L 4.984375 -3 L 4.796875 -3.296875 L 4.609375 -3.34375 Z M 15.234375 -2.46875 L 15.0625 -2.5 L 14.859375 -1.890625 L 15.546875 -2.109375 L 15.78125 -2.8125 L 15.671875 -3.03125 L 15.09375 -3.296875 L 15.25 -3.0625 L 15.125 -2.65625 Z M 2.15625 -2.84375 L 2.15625 -2.765625 L 2.34375 -2.640625 L 2.34375 -3.078125 Z M 14.140625 -2.03125 L 14.859375 -1.890625 L 14.46875 -2.578125 L 13.703125 -2.5 L 13.375 -2.140625 L 13.40625 -1.953125 Z M 11.859375 -1.53125 L 11.625 -2.234375 L 11.5625 -2.265625 L 11.828125 -1.453125 L 11.953125 -1.53125 L 12.203125 -2.078125 L 12.09375 -2.109375 Z M 13.046875 -1.890625 L 13.140625 -1.921875 L 13.125 -2 L 13.09375 -2.03125 Z M 13.203125 -1.921875 L 13.328125 -1.921875 L 13.25 -1.953125 Z M 5.65625 -0.453125 L 6.5 -0.234375 L 7.0625 -0.34375 L 7.03125 -0.390625 L 7.53125 -0.71875 L 7.921875 -1.5 L 8.484375 -0.46875 L 8.9375 -1.046875 L 9.40625 -0.734375 L 9.0625 0.296875 L 7.875 0.265625 L 8.09375 0.203125 L 7.265625 0.1875 L 7.109375 0.15625 L 7.34375 0.203125 L 7.953125 0.234375 L 7.71875 0.265625 L 7.1875 0.203125 L 7.03125 0.1875 L 7.328125 0.203125 L 6.84375 0.125 L 6.953125 0.125 L 6.828125 0.125 L 6.5 -0.234375 L 6.40625 -0.203125 L 6.6875 0.109375 L 6.765625 0.125 L 6.6875 0.109375 L 6.75 0.15625 L 5.75 -0.046875 L 5.828125 -0.046875 L 5.796875 -0.078125 L 5.828125 -0.046875 L 5.875 -0.078125 Z M 7.34375 0.265625 L 6.75 0.1875 L 7.1875 0.234375 Z M 16.546875 -5.40625 L 16.203125 -5.40625 L 16.671875 -4.421875 L 16.328125 -4.421875 L 16.328125 -4.375 L 16.859375 -4.265625 L 17.09375 -3.84375 L 16.90625 -4.421875 L 16.984375 -4.453125 Z M 15.359375 -3.8125 L 15.171875 -3.8125 L 15.203125 -3.796875 L 16.171875 -3.484375 L 15.625 -4.421875 L 15.96875 -4.421875 L 15.328125 -4.5625 L 15.234375 -4.5625 L 15.203125 -4.5 Z M 15.359375 -3.8125 "/></g></g></g></svg>